<?xml version="1.0" encoding="UTF-8"?>
<svg width="29px" height="29px" viewBox="0 0 29 29" version="1.1" xmlns="http://www.w3.org/2000/svg" xmlns:xlink="http://www.w3.org/1999/xlink">
    <!-- Generator: sketchtool 62 (101010) - https://sketch.com -->
    <title>F922409E-C687-4F6F-9341-0F23F7AFD17F</title>
    <desc>Created with sketchtool.</desc>
    <g id="CRM" stroke="none" stroke-width="1" fill="none" fill-rule="evenodd">
        <g id="Matching-3" transform="translate(-283.000000, -699.000000)" fill="#FFFFFF" fill-rule="nonzero">
            <g id="travel" transform="translate(283.000000, 699.000000)">
                <path d="M5.27999969,26.8799984 C5.42554654,26.8799984 5.56335903,26.8136703 5.65429652,26.6999984 C5.85609337,26.4503891 10.5599994,20.5478894 10.5599994,17.7599989 C10.5599994,14.8439054 8.19609323,12.4799993 5.27999969,12.4799993 C2.36390614,12.4799993 0,14.8439054 0,17.7599989 C0,20.5478894 4.703906,26.4480453 4.90570285,26.6999984 C4.99664034,26.8136703 5.13445283,26.8799984 5.27999969,26.8799984 Z M5.27999969,13.4399992 C7.66476518,13.4425773 9.59742129,15.3752334 9.59999943,17.7599989 C9.59999943,19.6223426 6.76265588,23.6946079 5.27999969,25.6218735 C3.79734349,23.6953111 0.959999943,19.6232801 0.959999943,17.7599989 C0.962578083,15.3752334 2.89523419,13.4425773 5.27999969,13.4399992 Z" id="Shape"></path>
                <path d="M7.19999957,17.279999 C7.19999957,16.2196865 6.34031212,15.3599991 5.27999969,15.3599991 C4.21968725,15.3599991 3.3599998,16.2196865 3.3599998,17.279999 C3.3599998,18.3403114 4.21968725,19.1999989 5.27999969,19.1999989 C6.34031212,19.1999989 7.19999957,18.3403114 7.19999957,17.279999 Z M4.31999974,17.279999 C4.31999974,16.7498427 4.74984344,16.319999 5.27999969,16.319999 C5.81015593,16.319999 6.23999963,16.7498427 6.23999963,17.279999 C6.23999963,17.8101552 5.81015593,18.2399989 5.27999969,18.2399989 C4.74984344,18.2399989 4.31999974,17.8101552 4.31999974,17.279999 Z" id="Shape"></path>
                <path d="M24.9599985,10.0799994 C25.0999204,10.0799994 25.2325766,10.0190619 25.3237485,9.91289005 C25.6799985,9.49968693 28.7999983,5.81671837 28.7999983,3.83999977 C28.7999983,1.71914054 27.0808577,0 24.9599985,0 C22.8391393,0 21.1199987,1.71914054 21.1199987,3.83999977 C21.1199987,5.81671837 24.2399986,9.49968693 24.5962485,9.91289005 C24.6874204,10.0190619 24.8200767,10.0799994 24.9599985,10.0799994 Z M24.9599985,0.959999943 C26.5499984,0.961640583 27.8383577,2.24999987 27.8399983,3.83999977 C27.8399983,5.05640598 26.0074203,7.56281205 24.9599985,8.85070261 C23.9121079,7.56281205 22.0799987,5.0587497 22.0799987,3.83999977 C22.0816393,2.24999987 23.3699986,0.961640583 24.9599985,0.959999943 Z" id="Shape"></path>
                <path d="M26.3999984,3.3599998 C26.3999984,2.56476549 25.7552328,1.91999989 24.9599985,1.91999989 C24.1647642,1.91999989 23.5199986,2.56476549 23.5199986,3.3599998 C23.5199986,4.15523411 24.1647642,4.79999971 24.9599985,4.79999971 C25.7552328,4.79999971 26.3999984,4.15523411 26.3999984,3.3599998 Z M24.4799985,3.3599998 C24.4799985,3.09492168 24.6949204,2.87999983 24.9599985,2.87999983 C25.2250766,2.87999983 25.4399985,3.09492168 25.4399985,3.3599998 C25.4399985,3.62507792 25.2250766,3.83999977 24.9599985,3.83999977 C24.6949204,3.83999977 24.4799985,3.62507792 24.4799985,3.3599998 Z" id="Shape"></path>
                <path d="M24.4799985,11.9999993 L24.9599985,11.9999993 C25.2250766,11.9999993 25.4399985,11.7850774 25.4399985,11.5199993 C25.4399985,11.2549212 25.2250766,11.0399993 24.9599985,11.0399993 L24.4799985,11.0399993 C24.2149204,11.0399993 23.9999986,11.2549212 23.9999986,11.5199993 C23.9999986,11.7850774 24.2149204,11.9999993 24.4799985,11.9999993 Z" id="Path"></path>
                <path d="M18.2399989,14.8799993 L19.2105457,14.8799993 C19.4756238,14.8799993 19.6905457,14.6650773 19.6905457,14.3999991 C19.6905457,14.134921 19.4756238,13.9199992 19.2105457,13.9199992 L18.2322646,13.9199992 C18.1054676,13.9202335 17.9838271,13.9710929 17.8945302,14.0610929 C17.8052333,14.1510929 17.7553114,14.2732023 17.756236,14.3999991 C17.7578896,14.6657804 17.9742176,14.8802335 18.2399989,14.8799993 L18.2399989,14.8799993 Z" id="Path"></path>
                <path d="M23.6212486,14.3999991 C23.6212486,14.6650773 23.8361704,14.8799991 24.1012486,14.8799991 L25.079061,14.8799991 C25.3441391,14.8799991 25.559061,14.6650773 25.559061,14.3999991 C25.559061,14.134921 25.3441391,13.9199992 25.079061,13.9199992 L24.1012486,13.9199992 C23.8361704,13.9199992 23.6212486,14.134921 23.6212486,14.3999991 Z" id="Path"></path>
                <path d="M21.5458581,11.9999993 L22.5239049,11.9999993 C22.788983,11.9999993 23.0039049,11.7850774 23.0039049,11.5199993 C23.0039049,11.2549212 22.788983,11.0399993 22.5239049,11.0399993 L21.5458581,11.0399993 C21.2805456,11.0399993 21.0658581,11.2549212 21.0658581,11.5199993 C21.0658581,11.7850774 21.2805456,11.9999993 21.5458581,11.9999993 Z" id="Path"></path>
                <path d="M8.74312448,27.8399983 L7.76484326,27.8399983 C7.49976519,27.8399983 7.28484329,28.0549202 7.28484329,28.3199983 C7.28484329,28.5850764 7.49976519,28.7999983 7.76484326,28.7999983 L8.74312448,28.7999983 C9.0082026,28.7999983 9.22312445,28.5850764 9.22312445,28.3199983 C9.22312445,28.0549202 9.0082026,27.8399983 8.74312448,27.8399983 Z" id="Path"></path>
                <path d="M16.8302334,13.7376555 C16.863749,13.7376555 16.8970303,13.7341398 16.9296084,13.7271085 C17.1888271,13.6724992 17.3547646,13.4184367 17.300624,13.1592179 C17.2870302,13.0935929 17.2802333,13.0270305 17.279999,12.9599992 C17.2797646,12.8081242 17.315624,12.658593 17.3845302,12.5231243 C17.5047646,12.2868743 17.4107802,11.9978899 17.1742958,11.8776556 C16.9380459,11.7574212 16.6490615,11.8514056 16.5288272,12.0878899 C16.3298427,12.478593 16.2707803,12.9260149 16.361249,13.3551555 C16.4074209,13.5773429 16.603124,13.7371867 16.8302334,13.7376555 L16.8302334,13.7376555 Z" id="Path"></path>
                <path d="M21.1680456,14.8799991 L22.1463268,14.8799991 C22.4114049,14.8799991 22.6263268,14.6650773 22.6263268,14.3999991 C22.6263268,14.134921 22.4114049,13.9199992 22.1463268,13.9199992 L21.1680456,13.9199992 C20.9029675,13.9199992 20.6880456,14.134921 20.6880456,14.3999991 C20.6880456,14.6650773 20.9029675,14.8799991 21.1680456,14.8799991 Z" id="Path"></path>
                <path d="M18.6114833,11.9999993 L19.5897645,11.9999993 C19.8548425,11.9999993 20.0697644,11.7850774 20.0697644,11.5199993 C20.0697644,11.2549212 19.8548425,11.0399993 19.5897645,11.0399993 L18.6114833,11.0399993 C18.3464052,11.0399993 18.1314833,11.2549212 18.1314833,11.5199993 C18.1314833,11.7850774 18.3464052,11.9999993 18.6114833,11.9999993 Z" id="Path"></path>
                <path d="M13.8682023,20.3409363 C13.906171,20.3507801 13.945546,20.3554675 13.9846867,20.3554675 C14.2049992,20.3549988 14.3967179,20.2049988 14.449921,19.9914832 C14.5120304,19.7446863 14.6289835,19.5149988 14.7921085,19.3195301 C14.907421,19.1887489 14.9425772,19.0059364 14.8844523,18.8418739 C14.8263273,18.677577 14.6835928,18.5578114 14.511796,18.5287489 C14.3402335,18.4999208 14.1660929,18.5662489 14.0573429,18.7021864 C13.8002335,19.0089832 13.6160148,19.3699207 13.5187492,19.7582801 C13.4875773,19.8817957 13.5070305,20.0128113 13.5726555,20.1220301 C13.638046,20.2314832 13.7444523,20.3102331 13.8682023,20.3409363 L13.8682023,20.3409363 Z" id="Path"></path>
                <path d="M23.3510142,27.8198421 C23.2478893,27.8334358 23.1440611,27.8402327 23.0399986,27.8399983 L22.4357799,27.8399983 C22.1704674,27.8399983 21.95578,28.0549202 21.95578,28.3199983 C21.95578,28.5850764 22.1704674,28.7999983 22.4357799,28.7999983 L23.0399986,28.7999983 C23.1843736,28.7999983 23.3287486,28.7906233 23.4719517,28.7721076 C23.7349204,28.7381233 23.9205454,28.4974202 23.8867954,28.2344515 C23.8528111,27.9714827 23.612108,27.7858577 23.3491392,27.8198421 L23.3510142,27.8198421 Z" id="Path"></path>
                <path d="M24.0196861,22.223905 C23.7021079,22.1278112 23.3718736,22.0792955 23.0399986,22.0799911 L22.9141393,22.0799911 C22.6490612,22.0799911 22.4341393,22.2949205 22.4341393,22.5599987 C22.4341393,22.8250768 22.6490612,23.0399986 22.9141393,23.0399986 L23.0399986,23.0399986 C23.2771861,23.0399986 23.5132017,23.0749205 23.7403111,23.1435923 C23.7855454,23.1576549 23.8326549,23.1646864 23.8799986,23.1646864 C24.1178892,23.1649205 24.3201548,22.9907799 24.355311,22.7554674 C24.3902329,22.5199205 24.2474986,22.2944518 24.0196861,22.2255455 L24.0196861,22.223905 Z" id="Path"></path>
                <path d="M22.9959361,18.7199989 C23.2610143,18.7199989 23.4759361,18.505077 23.4759361,18.2399989 C23.4759361,17.9749208 23.2610143,17.7599989 22.9959361,17.7599989 L22.0181237,17.7599989 C21.7530456,17.7599989 21.5381237,17.9749208 21.5381237,18.2399989 C21.5381237,18.505077 21.7530456,18.7199989 22.0181237,18.7199989 L22.9959361,18.7199989 Z" id="Path"></path>
                <path d="M25.8642172,26.1834359 C25.622811,26.0746859 25.3387485,26.1820297 25.2297641,26.4234359 C25.1179672,26.6716391 24.9644517,26.8989828 24.7762485,27.0956234 C24.6529673,27.2186702 24.6060923,27.3986702 24.6536704,27.566014 C24.7012485,27.7335921 24.8357798,27.862264 25.0049985,27.9021077 C25.1744516,27.9421858 25.3523422,27.8873421 25.4697641,27.7589046 C25.7336703,27.4837484 25.9488266,27.1652327 26.1053891,26.8176547 C26.2136703,26.5760141 26.1058578,26.2921859 25.8642172,26.1834359 L25.8642172,26.1834359 Z" id="Path"></path>
                <path d="M28.3781233,16.404374 C28.256014,16.3682803 28.1245296,16.3821084 28.0124983,16.4430459 C27.9007015,16.5039834 27.8174983,16.606874 27.7814046,16.7289834 C27.7108577,16.9642958 27.5819515,17.1780458 27.406639,17.3500771 C27.2170297,17.5357021 27.2137484,17.8396864 27.3993734,18.0292958 C27.5849984,18.2189052 27.8889827,18.2219521 28.078592,18.0365614 C28.371092,17.7499208 28.5857796,17.3936708 28.7024983,17.0010927 C28.7388264,16.8789834 28.7247639,16.747499 28.6640608,16.6354677 C28.6031233,16.5236709 28.5002327,16.4404677 28.3781233,16.404374 L28.3781233,16.404374 Z" id="Path"></path>
                <path d="M27.830389,15.5184369 C28.0199983,15.5186709 28.1917952,15.4071084 28.269139,15.2341397 C28.3462483,15.061171 28.3146077,14.8589054 28.1880452,14.7178116 C27.9140608,14.4131241 27.5671859,14.1832023 27.1799984,14.0496085 C26.9292171,13.9633585 26.6561703,14.0969523 26.5699203,14.3477335 C26.4836703,14.5985148 26.6172641,14.8715616 26.8680453,14.9578116 C27.1005452,15.0377335 27.3086702,15.1757804 27.4727327,15.3590616 C27.5639046,15.4605459 27.6939827,15.5184369 27.830389,15.5184369 Z" id="Path"></path>
                <path d="M20.95828,22.0799987 L19.9804675,22.0799987 C19.7153895,22.0799987 19.5004676,22.2949205 19.5004676,22.5599987 C19.5004676,22.8250768 19.7153895,23.0399986 19.9804675,23.0399986 L20.95828,23.0399986 C21.2233581,23.0399986 21.43828,22.8250768 21.43828,22.5599987 C21.43828,22.2949205 21.2233581,22.0799987 20.95828,22.0799987 Z" id="Path"></path>
                <path d="M25.9300766,17.7599989 L24.9517954,17.7599989 C24.6867172,17.7599989 24.4717954,17.9749208 24.4717954,18.2399989 C24.4717954,18.505077 24.6867172,18.7199989 24.9517954,18.7199989 L25.9300766,18.7199989 C26.1951547,18.7199989 26.4100766,18.505077 26.4100766,18.2399989 C26.4100766,17.9749208 26.1951547,17.7599989 25.9300766,17.7599989 Z" id="Path"></path>
                <path d="M11.6770306,27.8399983 L10.6992181,27.8399983 C10.43414,27.8399983 10.2192181,28.0549202 10.2192181,28.3199983 C10.2192181,28.5850764 10.43414,28.7999983 10.6992181,28.7999983 L11.6770306,28.7999983 C11.9421086,28.7999983 12.1570306,28.5850764 12.1570306,28.3199983 C12.1570306,28.0549202 11.9421086,27.8399983 11.6770306,27.8399983 Z" id="Path"></path>
                <path d="M25.8206235,23.5535142 C25.6708578,23.3343736 25.3717953,23.2781236 25.1524204,23.4278892 C24.9332798,23.5776549 24.8770298,23.8767173 25.0267954,24.0960923 C25.1800766,24.3206236 25.2937485,24.5697642 25.3626548,24.8327329 C25.4001548,25.0045298 25.5285922,25.1421079 25.6975766,25.1913266 C25.8663266,25.2405454 26.0484359,25.193436 26.1724203,25.0685141 C26.2961703,24.9438267 26.3418734,24.7612485 26.2914828,24.5927329 C26.1953891,24.2219517 26.0362484,23.8703892 25.8206235,23.5535142 L25.8206235,23.5535142 Z" id="Path"></path>
                <path d="M15.3370304,21.9077331 C15.1089835,21.7940612 14.9095304,21.6309362 14.7527335,21.4300769 C14.5900773,21.2205456 14.2884366,21.1828112 14.0791398,21.3454674 C13.8696085,21.5078894 13.8318742,21.80953 13.994296,22.0190612 C14.2401554,22.3345299 14.5537491,22.5907018 14.9121085,22.768358 C15.1485928,22.8787486 15.4300772,22.7798424 15.5456241,22.5457018 C15.6611709,22.3117955 15.5683584,22.0282018 15.3370304,21.9077331 L15.3370304,21.9077331 Z" id="Path"></path>
                <path d="M14.611171,27.8399983 L13.6319523,27.8399983 C13.3668742,27.8399983 13.1519524,28.0549202 13.1519524,28.3199983 C13.1519524,28.5850764 13.3668742,28.7999983 13.6319523,28.7999983 L14.611171,28.7999983 C14.8762491,28.7999983 15.091171,28.5850764 15.091171,28.3199983 C15.091171,28.0549202 14.8762491,27.8399983 14.611171,27.8399983 Z" id="Path"></path>
                <path d="M20.4796863,27.8399983 L19.5018738,27.8399983 C19.2367957,27.8399983 19.0218739,28.0549202 19.0218739,28.3199983 C19.0218739,28.5850764 19.2367957,28.7999983 19.5018738,28.7999983 L20.4796863,28.7999983 C20.7447644,28.7999983 20.9596863,28.5850764 20.9596863,28.3199983 C20.9596863,28.0549202 20.7447644,27.8399983 20.4796863,27.8399983 Z" id="Path"></path>
                <path d="M17.1278896,18.7199989 C17.3929677,18.7199989 17.6078896,18.505077 17.6078896,18.2399989 C17.6078896,17.9749208 17.3929677,17.7599989 17.1278896,17.7599989 L16.1500772,17.7599989 C15.8849991,17.7599989 15.6700772,17.9749208 15.6700772,18.2399989 C15.6700772,18.505077 15.8849991,18.7199989 16.1500772,18.7199989 L17.1278896,18.7199989 Z" id="Path"></path>
                <path d="M20.0639051,18.7199989 C20.3289831,18.7199989 20.5439051,18.505077 20.5439051,18.2399989 C20.5439051,17.9749208 20.3289831,17.7599989 20.0639051,17.7599989 L19.0837489,17.7599989 C18.8186707,17.7599989 18.6037489,17.9749208 18.6037489,18.2399989 C18.6037489,18.505077 18.8186707,18.7199989 19.0837489,18.7199989 L20.0639051,18.7199989 Z" id="Path"></path>
                <path d="M18.0243739,22.0799987 L17.0463271,22.0799987 C16.781249,22.0799987 16.5663272,22.2949205 16.5663272,22.5599987 C16.5663272,22.8250768 16.781249,23.0399986 17.0463271,23.0399986 L18.0243739,23.0399986 C18.2896864,23.0399986 18.5043739,22.8250768 18.5043739,22.5599987 C18.5043739,22.2949205 18.2896864,22.0799987 18.0243739,22.0799987 Z" id="Path"></path>
                <path d="M17.5460146,27.8399983 L16.5677334,27.8399983 C16.3026553,27.8399983 16.0877334,28.0549202 16.0877334,28.3199983 C16.0877334,28.5850764 16.3026553,28.7999983 16.5677334,28.7999983 L17.5460146,28.7999983 C17.8110927,28.7999983 18.0260146,28.5850764 18.0260146,28.3199983 C18.0260146,28.0549202 17.8110927,27.8399983 17.5460146,27.8399983 Z" id="Path"></path>
                <path d="M5.75999966,27.8399983 L5.27999969,27.8399983 C5.01492156,27.8399983 4.79999971,28.0549202 4.79999971,28.3199983 C4.79999971,28.5850764 5.01492156,28.7999983 5.27999969,28.7999983 L5.75999966,28.7999983 C6.02507778,28.7999983 6.23999963,28.5850764 6.23999963,28.3199983 C6.23999963,28.0549202 6.02507778,27.8399983 5.75999966,27.8399983 Z" id="Path"></path>
            </g>
        </g>
    </g>
</svg>