<?xml version="1.0" encoding="UTF-8"?>
<svg width="35px" height="36px" viewBox="0 0 35 36" version="1.1" xmlns="http://www.w3.org/2000/svg" xmlns:xlink="http://www.w3.org/1999/xlink">
    <!-- Generator: sketchtool 62 (101010) - https://sketch.com -->
    <title>DC27EAF6-29C6-4A2B-8979-138AE6C497DA</title>
    <desc>Created with sketchtool.</desc>
    <g id="CRM" stroke="none" stroke-width="1" fill="none" fill-rule="evenodd" opacity="0.309593564">
        <g id="Matching-3" transform="translate(-986.000000, -347.000000)" fill="#000000" fill-rule="nonzero">
            <g id="refresh-(1)" transform="translate(986.000000, 347.000000)">
                <path d="M32.4999837,23.0125266 C32.4999837,25.0886377 30.8208955,26.7719215 28.7499591,26.7719215 L4.26737716,26.7719215 L9.20484843,21.8221127 L7.43725875,20.0501062 L0.365984464,27.1390499 C-0.121994821,27.6285544 -0.121994821,28.4215518 0.365984464,28.9110563 L7.43725875,36 L9.20484843,34.2279935 L4.26737716,29.2781847 L28.7499591,29.2781847 C32.1999939,29.2739015 34.9957275,26.4711821 35,23.0125266 L35,18 L32.4999837,18 L32.4999837,23.0125266 Z" id="Path"></path>
                <path d="M2.50001635,12.9874734 C2.50001635,10.9110563 4.17879929,9.22807853 6.25004088,9.22807853 L30.7326229,9.22807853 L25.7951516,14.1778873 L27.5627413,15.9498938 L34.6340156,8.86095012 C35.1219948,8.37144558 35.1219948,7.57844821 34.6340156,7.08894367 L27.5627413,0 L25.7951516,1.77200646 L30.7326229,6.72181526 L6.25004088,6.72181526 C2.80000605,6.72579246 0.00396729157,9.52881783 0,12.9874734 L0,18 L2.50001635,18 L2.50001635,12.9874734 Z" id="Path"></path>
            </g>
        </g>
    </g>
</svg>