<?xml version="1.0" encoding="UTF-8"?>
<svg width="23px" height="17px" viewBox="0 0 23 17" version="1.1" xmlns="http://www.w3.org/2000/svg" xmlns:xlink="http://www.w3.org/1999/xlink">
    <!-- Generator: sketchtool 62 (101010) - https://sketch.com -->
    <title>09365378-9486-4E25-889E-C63E511B65B7</title>
    <desc>Created with sketchtool.</desc>
    <g id="CRM" stroke="none" stroke-width="1" fill="none" fill-rule="evenodd">
        <g id="Matching-3" transform="translate(-890.000000, -310.000000)" fill="#FFFFFF" fill-rule="nonzero" stroke="#08009D" stroke-width="0.1">
            <g id="mail-copy" transform="translate(891.000000, 310.000000)">
                <path d="M19.701562,0.316525415 L1.89843745,0.316525415 C0.852946852,0.316525415 0,1.15543616 0,2.18575614 L0,14.6472943 C0,15.674125 0.849149978,16.516525 1.89843745,16.516525 L19.701562,16.516525 C20.744437,16.516525 21.5999994,15.6804389 21.5999994,14.6472943 L21.5999994,2.18575614 C21.5999994,1.15892539 20.7508495,0.316525415 19.701562,0.316525415 Z M19.4394089,1.56267923 L10.8402466,10.0295882 L2.16670776,1.56267923 L19.4394089,1.56267923 Z M1.26562497,14.3892574 L1.26562497,2.43785305 L7.36083262,8.38782212 L1.26562497,14.3892574 Z M2.16054838,15.2703712 L8.25959509,9.26515595 L10.3966872,11.3513005 C10.6440747,11.5928051 11.043295,11.5920159 11.28967,11.3493897 L13.3734371,9.29768056 L19.439451,15.2703712 L2.16054838,15.2703712 Z M20.3343745,14.3892158 L14.2683606,8.4165252 L20.3343745,2.44379305 L20.3343745,14.3892158 Z" id="Shape"></path>
            </g>
        </g>
    </g>
</svg>