<?xml version="1.0" encoding="UTF-8"?>
<svg width="29px" height="29px" viewBox="0 0 29 29" version="1.1" xmlns="http://www.w3.org/2000/svg" xmlns:xlink="http://www.w3.org/1999/xlink">
    <!-- Generator: sketchtool 62 (101010) - https://sketch.com -->
    <title>091426AB-CA36-4D1D-95FA-C543A46AF68D</title>
    <desc>Created with sketchtool.</desc>
    <g id="CRM" stroke="none" stroke-width="1" fill="none" fill-rule="evenodd">
        <g id="Matching-3" transform="translate(-681.000000, -701.000000)" fill="#FFFFFF" fill-rule="nonzero" stroke="#C9002A" stroke-width="0.3">
            <g id="university" transform="translate(682.000000, 702.000000)">
                <path d="M25.6815599,17.7736856 L25.6815599,6.79943416 L26.760505,6.39649548 C27.0722834,6.28015114 27.2793726,5.98231783 27.2799984,5.64931066 C27.2806214,5.31630348 27.0745729,5.01784577 26.7632106,4.90025263 L13.9224321,0.0516681546 C13.7403185,-0.0172227182 13.5396814,-0.0172227182 13.3577759,0.0516681546 L0.516997346,4.90025263 C0.205218821,5.01784577 -0.000621565459,5.31630348 1.41015466e-06,5.64931066 C0.0006272189,5.98231783 0.207716432,6.28015114 0.51970302,6.39649548 L4.84859555,8.01324532 L4.84859555,13.8398303 C4.84859555,14.1665935 5.04756767,14.4604724 5.351021,14.5818119 C7.9990569,15.641191 10.7879967,16.178165 13.6399999,16.178165 C16.4920031,16.178165 19.280943,15.641191 21.9289789,14.5818119 C22.2324322,14.4604724 22.4314043,14.1665935 22.4314043,13.8398303 L22.4314043,8.01324532 L24.0831227,7.39634952 L24.0831227,17.7736856 C23.1529905,18.1035709 22.4846855,18.9918675 22.4846855,20.0337637 C22.4846855,20.6473294 22.7167503,21.207614 23.0972117,21.6321982 C22.7167503,22.0567823 22.4846855,22.6170669 22.4846855,23.2306326 L22.4846855,26.4807826 C22.4846855,26.9222253 22.8424608,27.2799999 23.2839041,27.2799999 L26.4807784,27.2799999 C26.9222218,27.2799999 27.2799984,26.9222253 27.2799984,26.4807826 L27.2799984,23.2306326 C27.2799984,22.6170669 27.0479322,22.0567823 26.6674709,21.6321982 C27.0481404,21.207614 27.2799984,20.6473294 27.2799984,20.0337637 C27.2799984,18.9918675 26.6119003,18.1035709 25.6815599,17.7736856 Z M13.6399999,1.65364078 L24.2073762,5.64369115 C23.7395003,5.81851991 14.1060026,9.41603804 13.6399999,9.59003429 C13.2880524,9.45870463 3.83104878,5.92695536 3.07262365,5.64369115 L13.6399999,1.65364078 Z M20.8329671,13.291409 C16.1737726,15.0182594 11.1062272,15.0182594 6.44703271,13.291409 L6.44703271,8.61016068 L13.3604815,11.192007 C13.540722,11.2592328 13.7392778,11.2592328 13.9197264,11.192007 L20.8329671,8.61016068 L20.8329671,13.291409 Z M24.8823413,19.2345465 C25.3229521,19.2345465 25.6815599,19.5931536 25.6815599,20.0337637 C25.6815599,20.474582 25.3229521,20.8329809 24.8823413,20.8329809 C24.4417304,20.8329809 24.0831227,20.474582 24.0831227,20.0337637 C24.0831227,19.5931536 24.4417304,19.2345465 24.8823413,19.2345465 Z M25.6815599,25.6815654 L24.0831227,25.6815654 L24.0831227,23.2306326 C24.0831227,22.7900225 24.4417304,22.4314154 24.8823413,22.4314154 C25.3229521,22.4314154 25.6815599,22.7900225 25.6815599,23.2306326 L25.6815599,25.6815654 Z" id="Shape"></path>
            </g>
        </g>
    </g>
</svg>