<?xml version="1.0" encoding="UTF-8"?>
<svg width="27px" height="26px" viewBox="0 0 27 26" version="1.1" xmlns="http://www.w3.org/2000/svg" xmlns:xlink="http://www.w3.org/1999/xlink">
    <!-- Generator: sketchtool 62 (101010) - https://sketch.com -->
    <title>9A18A39B-2BA5-4F78-968B-C1458838F03A</title>
    <desc>Created with sketchtool.</desc>
    <g id="CRM" stroke="none" stroke-width="1" fill="none" fill-rule="evenodd">
        <g id="Matching-3" transform="translate(-1076.000000, -701.000000)" fill="#FFFFFF" fill-rule="nonzero">
            <g id="time" transform="translate(1076.000000, 701.000000)">
                <path d="M26.8277613,14.1564144 C26.5864188,11.7289195 25.5019263,9.44039207 23.7739414,7.71235465 C22.2972215,6.23568722 20.4897516,5.28674976 18.5878867,4.86480728 L18.5878867,3.53088734 C19.3646766,3.33763485 19.9420716,2.63450238 19.9420716,1.79875492 C19.9420716,0.814484963 19.1413416,0.0137549994 18.1570717,0.0137549994 L14.3770718,0.0137549994 C13.3928019,0.0137549994 12.5920719,0.814484963 12.5920719,1.79875492 C12.5920719,2.63444988 13.1694669,3.33758235 13.9462044,3.53088734 L13.9462044,4.86853478 C12.050167,5.29226226 10.248682,6.23988722 8.7761621,7.71240715 C8.45391712,8.03465214 8.15676713,8.37269962 7.88476464,8.7240296 C7.87158714,8.7230321 7.85840964,8.7220346 7.84496964,8.7220346 L4.10376731,8.7220346 C3.81386233,8.7220346 3.57876734,8.95707709 3.57876734,9.24703458 C3.57876734,9.53699207 3.81386233,9.77203456 4.10376731,9.77203456 L7.17039717,9.77203456 C6.78546719,10.416472 6.47508721,11.0932495 6.23883722,11.7899245 L0.524999976,11.7899245 C0.235094989,11.7899245 0,12.024967 0,12.3149244 C0,12.6048819 0.235094989,12.8399244 0.524999976,12.8399244 L5.94215973,12.8399244 C5.79085474,13.5041019 5.70401974,14.1800394 5.68160224,14.8578668 L3.35999985,14.8578668 C3.07009486,14.8578668 2.83499987,15.0929093 2.83499987,15.3828668 C2.83499987,15.6728243 3.07009486,15.9078668 3.35999985,15.9078668 L5.69834974,15.9078668 C5.74265974,16.5874267 5.85191223,17.2634167 6.02615973,17.9258092 L2.62499988,17.9258092 C2.33509489,17.9258092 2.0999999,18.1608517 2.0999999,18.4508092 C2.0999999,18.7407666 2.33509489,18.9758091 2.62499988,18.9758091 L6.36121471,18.9758091 C6.87623969,20.3382366 7.68111715,21.615194 8.7761621,22.710239 C10.505827,24.4399039 12.7967169,25.5246588 15.2267318,25.7647413 C15.5735468,25.7989713 15.9206243,25.8159288 16.2672293,25.8159288 C18.3158842,25.8159288 20.3384991,25.2230464 22.054724,24.1054264 C22.297694,23.9471914 22.3664165,23.6219539 22.2081815,23.3789839 C22.0499465,23.1360139 21.724709,23.0672915 21.481739,23.2255264 C17.7249967,25.6718688 12.6937644,25.1429314 9.51861707,21.967784 C5.79311224,18.2422792 5.79311224,12.1804719 9.51861707,8.45491462 C13.2440694,4.72946229 19.3058766,4.72946229 23.031434,8.45491462 C26.2023813,11.6259145 26.7342063,16.6528417 24.2959489,20.4077466 C24.1380289,20.6509266 24.2071714,20.9761115 24.4502989,21.133979 C24.6935839,21.291899 25.0186639,21.2227565 25.1765314,20.9795765 C26.4792663,18.9732891 27.0656913,16.5501517 26.8277613,14.1564144 Z M13.6420719,1.79880742 C13.6420719,1.39350744 13.9717719,1.06380745 14.3770718,1.06380745 L18.1570717,1.06380745 C18.5623717,1.06380745 18.8920716,1.39350744 18.8920716,1.79880742 C18.8920716,2.2041074 18.5623717,2.53380738 18.1570717,2.53380738 L18.0628867,2.53380738 L14.4712043,2.53380738 L14.3770718,2.53380738 C13.9717719,2.53380738 13.6420719,2.2040549 13.6420719,1.79880742 Z M14.9962043,4.68803979 L14.9962043,3.58380734 L17.5378867,3.58380734 L17.5378867,4.68614979 C16.6938967,4.58576979 15.8400368,4.58639979 14.9962043,4.68803979 Z" id="XMLID_389_"></path>
                <path d="M23.4029239,21.813749 C23.2643239,21.813749 23.1293989,21.869924 23.0318015,21.967574 C22.9336265,22.065224 22.877924,22.200674 22.877924,22.338749 C22.877924,22.476824 22.9336265,22.612274 23.0318015,22.709924 C23.1293989,22.808099 23.2643764,22.863749 23.4029239,22.863749 C23.5409989,22.863749 23.6759239,22.808099 23.7740989,22.709924 C23.8717489,22.612274 23.9279239,22.476824 23.9279239,22.338749 C23.9279239,22.200674 23.8718014,22.065224 23.7740989,21.967574 C23.6759239,21.869924 23.5409464,21.813749 23.4029239,21.813749 Z" id="XMLID_391_"></path>
                <path d="M16.2750518,7.06697218 C11.784307,7.06697218 8.13077963,10.720447 8.13077963,15.2112443 C8.13077963,19.7020416 11.784307,23.3555164 16.2750518,23.3555164 C20.7657966,23.3555164 24.4193239,19.7020416 24.4193239,15.2112443 C24.4193239,10.720447 20.7657966,7.06697218 16.2750518,7.06697218 Z M16.2750518,22.3055165 C12.3632244,22.3055165 9.18077958,19.1230191 9.18077958,15.2112443 C9.18077958,11.2994695 12.3632244,8.11697213 16.2750518,8.11697213 C20.1868791,8.11697213 23.3693239,11.2994695 23.3693239,15.2112443 C23.3693239,19.1230191 20.1868791,22.3055165 16.2750518,22.3055165 Z" id="XMLID_394_"></path>
                <path d="M19.5959916,11.1478495 L16.9956667,13.7481219 C16.7782117,13.6406019 16.5336142,13.5798594 16.2750518,13.5798594 C16.0164368,13.5798594 15.7718918,13.6406019 15.5544368,13.7481219 L14.3906693,12.5843544 C14.1856044,12.3793419 13.8532794,12.3793419 13.6481619,12.5843544 C13.4431494,12.7893669 13.4431494,13.1217969 13.6481619,13.3268094 L14.8119293,14.4905768 C14.7043568,14.7080318 14.6436668,14.9526293 14.6436668,15.2111918 C14.6436668,16.1107268 15.3754643,16.8425767 16.2750518,16.8425767 C17.1746392,16.8425767 17.9064367,16.1107268 17.9064367,15.2111918 C17.9064367,14.9526293 17.8456942,14.7080318 17.7381742,14.4905768 L20.2621641,11.966587 L20.2621641,11.966587 L20.3384466,11.8903045 C20.5434591,11.685292 20.5434591,11.352862 20.3384466,11.1478495 C20.1334341,10.942837 19.8011091,10.942837 19.5959916,11.1478495 Z M16.2750518,15.7926293 C15.9544868,15.7926293 15.6936668,15.5318093 15.6936668,15.2112443 C15.6936668,14.8906793 15.9544868,14.6298593 16.2750518,14.6298593 C16.5956167,14.6298593 16.8564367,14.8906793 16.8564367,15.2112443 C16.8564367,15.5318093 16.5956167,15.7926293 16.2750518,15.7926293 Z" id="XMLID_397_"></path>
                <path d="M21.888299,14.6926493 L21.4018865,14.6926493 C21.1119815,14.6926493 20.8768866,14.9276918 20.8768866,15.2176493 C20.8768866,15.5076068 21.1119815,15.7426493 21.4018865,15.7426493 L21.888299,15.7426493 C22.178204,15.7426493 22.413299,15.5076068 22.413299,15.2176493 C22.413299,14.9276918 22.178204,14.6926493 21.888299,14.6926493 Z" id="XMLID_398_"></path>
                <path d="M11.1481645,14.6798393 L10.6618045,14.6798393 C10.3718995,14.6798393 10.1368045,14.9148818 10.1368045,15.2048393 C10.1368045,15.4947968 10.3718995,15.7298393 10.6618045,15.7298393 L11.1481645,15.7298393 C11.4380695,15.7298393 11.6731645,15.4947968 11.6731645,15.2048393 C11.6731645,14.9148818 11.4380695,14.6798393 11.1481645,14.6798393 Z" id="XMLID_399_"></path>
                <path d="M16.2814568,10.609357 C16.5713617,10.609357 16.8064567,10.3743145 16.8064567,10.084357 L16.8064567,9.59799706 C16.8064567,9.30803958 16.5713617,9.07299709 16.2814568,9.07299709 C15.9915518,9.07299709 15.7564568,9.30803958 15.7564568,9.59799706 L15.7564568,10.084357 C15.7564568,10.3743145 15.9915518,10.609357 16.2814568,10.609357 Z" id="XMLID_400_"></path>
                <path d="M16.2686468,19.8131316 C15.9787418,19.8131316 15.7436468,20.0481741 15.7436468,20.3381316 L15.7436468,20.8244916 C15.7436468,21.114449 15.9787418,21.3494915 16.2686468,21.3494915 C16.5585517,21.3494915 16.7936467,21.114449 16.7936467,20.8244916 L16.7936467,20.3381316 C16.7936467,20.0481741 16.5585517,19.8131316 16.2686468,19.8131316 Z" id="XMLID_424_"></path>
                <path d="M0.524999976,17.9255992 C0.386924982,17.9255992 0.251474989,17.9817742 0.153824993,18.0794242 C0.0561749974,18.1770742 0,18.3125242 0,18.4505992 C0,18.5891992 0.0561224975,18.7241241 0.153824993,18.8217741 C0.251527489,18.9194241 0.386924982,18.9755991 0.524999976,18.9755991 C0.66307497,18.9755991 0.798524964,18.9194241 0.896122459,18.8217741 C0.993772455,18.7241241 1.04999995,18.5886742 1.04999995,18.4505992 C1.04999995,18.3125242 0.993824955,18.1770742 0.896122459,18.0794242 C0.798524964,17.9817742 0.66307497,17.9255992 0.524999976,17.9255992 Z" id="XMLID_425_"></path>
            </g>
        </g>
    </g>
</svg>