<?xml version="1.0" encoding="UTF-8"?>
<svg width="22px" height="22px" viewBox="0 0 22 22" version="1.1" xmlns="http://www.w3.org/2000/svg" xmlns:xlink="http://www.w3.org/1999/xlink">
    <!-- Generator: sketchtool 62 (101010) - https://sketch.com -->
    <title>6457E55A-9E94-4FC2-A7D7-CC2F8505743A</title>
    <desc>Created with sketchtool.</desc>
    <g id="CRM" stroke="none" stroke-width="1" fill="none" fill-rule="evenodd">
        <g id="Matching-3" transform="translate(-838.000000, -308.000000)" fill="#FFFFFF" fill-rule="nonzero" stroke="#FFFFFF" stroke-width="0.5">
            <g id="phone-copy" transform="translate(849.000000, 319.000000) rotate(-360.000000) translate(-849.000000, -319.000000) translate(839.000000, 309.000000)">
                <path d="M2.95644023,0.292318892 C3.48960779,-0.0282067498 4.18057192,0.127319144 4.52497134,0.64540366 L4.52497134,0.64540366 L7.19757574,4.65326959 C7.53362326,5.16203493 7.42276741,5.84361111 6.94284313,6.21966514 L6.94284313,6.21966514 L5.44290578,7.38676671 C5.24501241,7.53800037 5.1887145,7.81189144 5.3109382,8.02890072 L5.3109382,8.02890072 L5.43269791,8.25097561 C5.83393657,8.98579872 6.3344699,9.90248118 8.17988932,11.7486841 C10.0253087,13.5948871 10.9412325,14.0944492 11.6773587,14.4957153 L11.6773587,14.4957153 L11.8994184,14.6181407 C12.1164516,14.73871 12.3891639,14.6813255 12.5391886,14.483496 L12.5391886,14.483496 L13.7065584,12.9824507 C14.082548,12.5023003 14.764271,12.3915915 15.2728469,12.7280487 L15.2728469,12.7280487 L19.2804388,15.4008358 C19.7987199,15.7454521 19.9541578,16.4368888 19.6331901,16.9702089 L19.6331901,16.9702089 L18.6255115,18.6451477 C18.3161436,19.171894 17.814721,19.5582726 17.2265315,19.7231564 C16.7210102,19.8598506 16.1994038,19.927985 15.6757482,19.9257958 C13.4003998,19.9257958 10.0899972,18.7299097 5.64323511,14.2831916 C0.0531922321,8.69210922 -0.400787055,4.89707634 0.202675574,2.69813664 C0.367741376,2.11002294 0.754054897,1.60864334 1.28061055,1.29906097 L1.28061055,1.29906097 Z M3.91828767,0.919259871 C3.76730971,0.692163924 3.46433817,0.624003891 3.23062507,0.764620577 L3.23062507,0.764620577 L1.53760163,1.78022459 C1.15306683,2.00497693 0.870329849,2.36976005 0.748609975,2.79817222 C0.185596966,4.84902752 0.651890333,8.43115948 6.07362007,13.8525186 C11.4953498,19.2738778 15.0780391,19.7401783 17.1287221,19.1772038 C17.5566557,19.0556485 17.920995,18.7732824 18.1454112,18.3892426 L18.1454112,18.3892426 L19.1610846,16.6963349 C19.3019062,16.4626768 19.2337415,16.1595697 19.0064738,16.0087193 L19.0064738,16.0087193 L14.9581161,13.3088789 C14.7351063,13.161622 14.4364316,13.2100176 14.2714301,13.4202004 L14.2714301,13.4202004 L13.0924349,14.9357749 C12.7397363,15.3969976 12.1015273,15.5286695 11.5950773,15.244741 L11.5950773,15.244741 L11.3760909,15.1240841 C10.5951071,14.6981327 9.62341846,14.1684765 7.68972873,12.2352705 C5.75603901,10.3020254 5.22638568,9.3300907 4.80036613,8.54880877 L4.80036613,8.54880877 L4.68001345,8.33014982 C4.39602646,7.82369539 4.52774642,7.18556906 4.98900068,6.8328946 L4.98900068,6.8328946 L6.50467873,5.65397993 C6.71499317,5.48902874 6.76343112,5.19025735 6.61600788,4.96734084 L6.61600788,4.96734084 L5.3849809,3.12112187 Z M11.0879878,2.95441151 C14.6481432,2.95798479 17.5332045,5.60265389 17.5371424,8.86612131 C17.5371424,9.03796719 17.3851945,9.17725242 17.1977258,9.17725242 C17.010257,9.17725242 16.8583091,9.03796719 16.8583091,8.86612131 C16.8547292,5.94619981 14.2733649,3.57991885 11.0879878,3.57667372 C10.9005191,3.57667372 10.7485711,3.43738849 10.7485711,3.26554261 C10.7485711,3.09369673 10.9005191,2.95441151 11.0879878,2.95441151 Z M11.1122324,4.65154994 C13.7220445,4.65420173 15.8369737,6.53413398 15.8399996,8.85399878 C15.8399996,9.03254025 15.677198,9.17725242 15.4763383,9.17725242 C15.2755212,9.17725242 15.112677,9.03254025 15.112677,8.85399878 C15.1100773,6.89106539 13.3205382,5.30036806 11.1122324,5.29805721 C10.9113727,5.29805721 10.7485711,5.15334505 10.7485711,4.97480358 C10.7485711,4.7962621 10.9113727,4.65154994 11.1122324,4.65154994 Z M11.1021322,6.91440118 C12.4683952,6.91562764 13.575568,7.8013967 13.5771425,8.8944043 C13.5771425,9.05062874 13.4188211,9.17725242 13.2235814,9.17725242 C13.0283418,9.17725242 12.8700204,9.05062874 12.8700204,8.8944043 C12.8688188,8.11367985 12.0779989,7.48102554 11.1021322,7.48009741 C10.9068511,7.48009741 10.7485711,7.35347374 10.7485711,7.19724929 C10.7485711,7.04102485 10.9068511,6.91440118 11.1021322,6.91440118 Z" id="Combined-Shape"></path>
            </g>
        </g>
    </g>
</svg>