<?xml version="1.0" encoding="UTF-8"?>
<svg width="22px" height="30px" viewBox="0 0 22 30" version="1.1" xmlns="http://www.w3.org/2000/svg" xmlns:xlink="http://www.w3.org/1999/xlink">
    <!-- Generator: sketchtool 62 (101010) - https://sketch.com -->
    <title>5950133B-4AE7-40B5-BF31-AB29E08C4EDC</title>
    <desc>Created with sketchtool.</desc>
    <g id="CRM" stroke="none" stroke-width="1" fill="none" fill-rule="evenodd">
        <g id="Matching-3" transform="translate(-1475.000000, -699.000000)" fill="#FFFFFF" fill-rule="nonzero" stroke="#FFFFFF" stroke-width="0.3">
            <g id="woman" transform="translate(1476.000000, 700.000000)">
                <path d="M19.2387082,20.6329597 C18.8642438,18.7314309 17.1047213,18.4077688 17.0991729,18.4051813 L17.0991729,18.4052375 C17.0802527,18.3996125 17.2605771,18.4454562 12.8079512,17.3265327 L12.8079512,17.1733641 L16.0856942,17.1733641 C16.7613282,17.1733641 17.310957,16.6160961 17.310957,15.9311969 L17.310957,9.59374246 C17.366053,9.3581115 17.366164,9.11314306 17.310957,8.87700586 L17.310957,6.56406505 C17.310957,6.33096534 17.1245848,6.14213433 16.8947682,6.14213433 C16.6648407,6.14213433 16.4785795,6.33096534 16.4785795,6.56406505 L16.4785795,7.77495726 C16.2588611,7.64198243 16.007905,7.5466388 15.7374739,7.49944511 C15.6398213,7.05973942 15.2796163,6.71211486 14.822813,6.65130869 C14.3466456,6.58785877 13.9857748,6.30644037 13.7502434,5.8149285 C13.6399958,5.58481004 13.4240504,5.43366648 13.1727059,5.41049151 C12.9211395,5.38742904 12.6829448,5.49638515 12.5338581,5.70214739 C11.8184418,6.68922114 9.82960222,8.90316208 6.39528214,8.90304958 C6.13400593,8.90304958 5.95684413,8.89050585 5.89514544,8.88769335 C5.26406548,8.84916215 4.73047166,9.3603615 4.73047166,10.0014419 L4.73047166,10.9709095 C4.73047166,12.5204262 5.36454779,14.0226368 6.47001967,15.0922855 C6.83666082,15.4470538 7.24108687,15.7429847 7.67236738,15.9789531 L7.67236738,16.3296152 L4.40960518,16.3296152 C4.19293846,16.3296152 4.01666441,16.1509091 4.01666441,15.9313094 L4.01666441,6.45038394 C4.01666441,3.37671909 6.48866244,0.844009798 9.47472377,0.844009798 C9.48437806,0.844009798 9.49403235,0.844066048 9.50363116,0.844122298 C10.573482,0.849916041 11.808732,1.1579969 12.6504864,1.62875255 C13.1839692,1.92727092 13.5134913,1.69000873 14.040316,1.69000873 C15.3261678,1.69000873 16.3566247,3.03044453 16.4801331,4.23604925 C16.4809098,4.25371173 16.4827408,4.32441789 16.4829628,4.59531754 C16.4832402,5.00262328 16.9369919,5.03389824 16.8994844,5.01691076 C17.1294119,5.01674201 17.3155067,4.82762975 17.3153403,4.59464254 C17.3152848,4.51971764 17.3158951,4.22592426 17.3089596,4.15774935 C17.1416185,2.47942022 15.7294841,0.846147296 14.0403715,0.846147296 C13.3806615,0.846147296 13.2778489,1.01568458 13.0526376,0.88990974 C12.0981388,0.356041667 10.7068111,0.00678585969 9.5081254,0.000129679477 C6.05299866,-0.0224078533 3.18423143,2.8956697 3.18423143,6.45032769 L3.18423143,15.9312532 C3.18423143,16.6162086 3.73391573,17.1734203 4.40954969,17.1734203 L7.67236738,17.1734203 L7.67236738,17.3265889 L3.39795747,18.4005688 C3.39229806,18.401975 3.38674962,18.4036063 3.38114569,18.4052375 L3.06887929,18.4986124 C3.05950242,18.5014249 3.050292,18.5045187 3.04113707,18.5079499 C2.4838514,18.7187746 1.50904536,19.2751427 1.2415549,20.6331847 C-0.0251547511,27.084039 0.028165791,26.8085831 0.0251141471,26.8306894 C-0.127468049,27.9248067 0.412783895,28.7999994 1.71239582,28.7999994 L6.21301577,28.7999994 C6.44294327,28.7999994 6.62920452,28.6111121 6.62920452,28.3780686 C6.62920452,28.1449689 6.44288778,27.9561379 6.21301577,27.9561379 L4.64685662,27.9561379 L4.64685662,23.9764555 C4.64685662,23.7433558 4.46053989,23.5545248 4.23066787,23.5545248 C4.00079586,23.5545248 3.81447913,23.743412 3.81447913,23.9764555 L3.81447913,27.9561379 L1.71239582,27.9561379 C1.15954891,27.9561379 0.838515965,27.7756882 0.83318946,27.1869202 C0.830859113,26.899708 0.819706742,27.1796639 2.0578974,20.7981658 C2.24426961,19.8518732 2.92206747,19.456605 3.31916957,19.3035489 L3.6077996,19.2172615 L6.06243101,18.600481 C8.79298652,21.8616269 8.63130487,21.6888271 8.78910261,21.8448644 C9.70048994,22.746157 11.0009341,22.6825384 11.856837,21.6635147 L14.4271535,18.6027873 L16.872408,19.2172053 C16.9431507,19.2501677 18.1603682,19.4672362 18.4224212,20.797997 C19.6499588,27.1242577 19.649515,26.898358 19.6471846,27.1865827 C19.6429678,27.7632569 19.3352511,27.9561942 18.7679783,27.9561942 L16.6808203,27.9561942 L16.6808203,23.9764555 C16.6808203,23.7433558 16.494559,23.5545248 16.2646315,23.5545248 C16.034704,23.5545248 15.8484428,23.743412 15.8484428,23.9764555 L15.8484428,27.9561379 L8.15524842,27.9561379 C7.92532092,27.9561379 7.73905967,28.1450252 7.73905967,28.3780686 C7.73905967,28.6111683 7.92537641,28.7999994 8.15524842,28.7999994 L18.7680337,28.7999994 C19.7962713,28.7999994 20.4701298,28.2264188 20.4798183,27.1933326 C20.4831131,26.710877 20.4547606,26.9413892 19.2387082,20.6329597 Z M15.7732762,8.39471053 C16.1448336,8.49635556 16.4313907,8.72157868 16.5364992,8.99972487 L16.5364992,9.46861235 C16.4313907,9.7468131 16.1448336,9.97203623 15.7732762,10.0736267 L15.7732762,8.39471053 Z M15.8190359,11.0709091 L15.8190359,10.9923277 C16.0804385,10.943193 16.3231616,10.8490088 16.5364992,10.7193637 L16.5364992,16.0001478 C16.5364992,16.2217077 16.3593498,16.4018492 16.141663,16.4018492 L12.8475879,16.4018492 L12.8475879,16.072942 C14.6209775,15.1295679 15.8190359,13.2407205 15.8190359,11.0709091 Z M7.0879324,14.4517535 C6.14206826,13.540794 5.59961603,12.2616497 5.59961603,10.9421333 C5.62447053,10.0238079 5.53937453,9.91253148 5.68460059,9.7745465 C5.73603714,9.72562763 5.80519506,9.69723219 5.88304649,9.70173047 C8.88029843,9.88379866 11.4582561,8.55432977 13.1602877,6.32835216 C13.6192043,7.14141764 14.2922262,7.39455878 14.7912109,7.46073983 C14.9159293,7.47727104 15.0100531,7.58466766 15.0100531,7.71067594 C15.0100531,8.8774755 15.0100531,9.857315 15.0100531,11.0157365 C15.0100531,15.2124139 10.0306828,17.2856184 7.0879324,14.4517535 Z M11.2147389,21.054131 C10.6387908,21.7404473 9.83254063,21.7386025 9.25797028,21.0506651 L8.39545345,20.0179763 L12.0843648,20.0179763 L11.2147389,21.054131 Z M12.8877403,19.2430919 L7.71737975,19.2430919 L6.99621121,18.3995174 L8.23110953,18.0961499 C8.4184086,18.0501902 8.5497641,17.879546 8.5497641,17.688389 L8.54982004,16.4018492 C9.70449529,16.7832761 10.9238973,16.7791181 12.0492021,16.4137133 C12.0570902,17.7428865 12.0311883,17.7124499 12.0725865,17.8297055 C12.1183484,17.9593241 12.2273824,18.0616108 12.3678007,18.0960945 L13.6108109,18.4014024 L12.8877403,19.2430919 Z" id="Shape"></path>
            </g>
        </g>
    </g>
</svg>