<?xml version="1.0" encoding="UTF-8"?>
<svg width="38px" height="45px" viewBox="0 0 38 45" version="1.1" xmlns="http://www.w3.org/2000/svg" xmlns:xlink="http://www.w3.org/1999/xlink">
    <!-- Generator: Sketch 61 (89581) - https://sketch.com -->
    <title>Group 8</title>
    <desc>Created with Sketch.</desc>
    <defs>
        <polygon id="path-1" points="0 0 40 0 40 47 0 47"></polygon>
    </defs>
    <g id="CRM" stroke="none" stroke-width="1" fill="none" fill-rule="evenodd">
        <g id="Keuze" transform="translate(-797.000000, -438.000000)">
            <g id="Group" transform="translate(323.000000, 216.000000)">
                <g id="Group-8" transform="translate(472.000000, 222.000000)">
                    <mask id="mask-2" fill="white">
                        <use xlink:href="#path-1"></use>
                    </mask>
                    <g id="Clip-2"></g>
                    <path d="M9.61262408,36.0850089 L38.3873759,36.0850089 L38.3873759,1.9148702 L9.61262408,1.9148702 L9.61262408,36.0850089 Z M40,37.0422627 L40,0.957737338 C40,0.425553576 39.6417409,0 39.1938916,0 L8.80651565,0 C8.3582591,0 8,0.425553576 8,0.957737338 L8,37.0422627 C8,37.5745673 8.3582591,38 8.80651565,38 L39.1938916,38 C39.6417409,38 40,37.5745673 40,37.0422627 L40,37.0422627 Z" id="Fill-1" fill="#08009D" mask="url(#mask-2)"></path>
                    <path d="M2.80651565,45 L33.1935862,45 C33.6417409,45 34,44.5744464 34,44.0427462 C34,43.5105625 33.6417409,43.0850089 33.1935862,43.0850089 L3.61262408,43.0850089 L3.61262408,7.95773734 C3.61262408,7.42543268 3.25426317,7 2.80651565,7 C2.35836091,7 2,7.42543268 2,7.95773734 L2,44.0427462 C2,44.5744464 2.35836091,45 2.80651565,45" id="Fill-3" fill="#08009D" mask="url(#mask-2)"></path>
                    <path d="M35,6.749936 C35,7.1624712 34.6028585,7.5 34.1175094,7.5 L13.8824906,7.5 C13.3971415,7.5 13,7.1624712 13,6.749936 C13,6.3374008 13.3971415,6 13.8824906,6 L34.1175094,6 C34.6028585,6 35,6.3374008 35,6.749936" id="Fill-4" fill="#C9002A" mask="url(#mask-2)"></path>
                    <path d="M35,10.749936 C35,11.1624712 34.6028585,11.5 34.1175094,11.5 L13.8824906,11.5 C13.3971415,11.5 13,11.1624712 13,10.749936 C13,10.3374008 13.3971415,10 13.8824906,10 L34.1175094,10 C34.6028585,10 35,10.3374008 35,10.749936" id="Fill-5" fill="#C9002A" mask="url(#mask-2)"></path>
                    <path d="M35,14.75 C35,15.1625704 34.6028585,15.5 34.1175094,15.5 L13.8824906,15.5 C13.3971415,15.5 13,15.1625704 13,14.75 C13,14.3374296 13.3971415,14 13.8824906,14 L34.1175094,14 C34.6028585,14 35,14.3374296 35,14.75" id="Fill-6" fill="#C9002A" mask="url(#mask-2)"></path>
                    <path d="M21,19.75 C21,20.1625704 20.5969988,20.5 20.1044886,20.5 L13.8955114,20.5 C13.4030012,20.5 13,20.1625704 13,19.75 C13,19.3374296 13.4030012,19 13.8955114,19 L20.1044886,19 C20.5969988,19 21,19.3374296 21,19.75" id="Fill-7" fill="#C9002A" mask="url(#mask-2)"></path>
                </g>
            </g>
        </g>
    </g>
</svg>