<?xml version="1.0" encoding="UTF-8"?>
<svg width="35px" height="32px" viewBox="0 0 35 32" version="1.1" xmlns="http://www.w3.org/2000/svg" xmlns:xlink="http://www.w3.org/1999/xlink">
    <!-- Generator: Sketch 60.1 (88133) - https://sketch.com -->
    <title>1243560</title>
    <desc>Created with Sketch.</desc>
    <g id="Page-1" stroke="none" stroke-width="1" fill="none" fill-rule="evenodd" opacity="0.7">
        <g id="3" transform="translate(-35.000000, -307.000000)" fill="#464646" fill-rule="nonzero" stroke="#464646" stroke-width="0.2">
            <g id="Menu">
                <g id="Group">
                    <g id="1243560" transform="translate(36.000000, 308.000000)">
                        <path d="M31.8835202,5.03424003 L24.6118401,5.03424003 L24.6118401,2.79680002 C24.6099282,1.2528244 23.3590157,0.00191187851 21.8150401,0 L11.7465601,0 C10.2025844,0.00191187851 8.95167194,1.2528244 8.94976005,2.79680002 L8.94976005,5.03424003 L1.67808001,5.03424003 C0.751366897,5.03424003 0,5.78560692 0,6.71232004 L0,19.1635426 C0.00355062152,19.8731213 0.450656218,20.5043132 1.11872001,20.7427513 L1.11872001,28.5273602 C1.11872001,29.4540733 1.8700869,30.2054402 2.79680002,30.2054402 L30.7648002,30.2054402 C31.6915133,30.2054402 32.4428802,29.4540733 32.4428802,28.5273602 L32.4428802,20.7432976 C33.110944,20.5045863 33.5583227,19.8731213 33.5616002,19.1635426 L33.5616002,6.71232004 C33.5616002,5.78560692 32.8102333,5.03424003 31.8835202,5.03424003 Z M10.0684801,2.79680002 C10.0684801,1.8700869 10.819847,1.11872001 11.7465601,1.11872001 L21.8150401,1.11872001 C22.7417532,1.11872001 23.4931201,1.8700869 23.4931201,2.79680002 L23.4931201,5.03424003 L22.3744001,5.03424003 L22.3744001,2.79680002 C22.3744001,2.48789562 22.1239445,2.23744001 21.8150401,2.23744001 L11.7465601,2.23744001 C11.4376557,2.23744001 11.1872001,2.48789562 11.1872001,2.79680002 L11.1872001,5.03424003 L10.0684801,5.03424003 L10.0684801,2.79680002 Z M21.2556801,5.03424003 L12.3059201,5.03424003 L12.3059201,3.35616002 L21.2556801,3.35616002 L21.2556801,5.03424003 Z M31.3241602,28.5273602 C31.3241602,28.8362646 31.0737046,29.0867202 30.7648002,29.0867202 L2.79680002,29.0867202 C2.48789562,29.0867202 2.23744001,28.8362646 2.23744001,28.5273602 L2.23744001,20.9350313 L14.5433601,22.6322301 L14.5433601,24.0524801 C14.5433601,24.9791932 15.294727,25.7305601 16.2214401,25.7305601 L17.3401601,25.7305601 C18.2668732,25.7305601 19.0182401,24.9791932 19.0182401,24.0524801 L19.0182401,22.6322301 L31.3241602,20.9350313 L31.3241602,28.5273602 Z M17.8995201,24.0524801 C17.8995201,24.3613845 17.6490645,24.6118401 17.3401601,24.6118401 L16.2214401,24.6118401 C15.9125357,24.6118401 15.6620801,24.3613845 15.6620801,24.0524801 L15.6620801,20.6963201 C15.6620801,20.3874157 15.9125357,20.1369601 16.2214401,20.1369601 L17.3401601,20.1369601 C17.6490645,20.1369601 17.8995201,20.3874157 17.8995201,20.6963201 L17.8995201,24.0524801 Z M32.4428805,19.1635426 C32.4428805,19.4424032 32.2380364,19.6789295 31.9619071,19.7179863 L31.8067721,19.7392901 L19.0182401,21.5028582 L19.0182401,20.6963201 C19.0182401,19.769607 18.2668732,19.0182401 17.3401601,19.0182401 L16.2214401,19.0182401 C15.294727,19.0182401 14.5433601,19.769607 14.5433601,20.6963201 L14.5433601,21.5028582 L1.6002394,19.7179863 C1.32411001,19.6792026 1.11871973,19.4426763 1.11871973,19.1635426 L1.11871973,6.71232004 C1.11871973,6.40341564 1.36917562,6.15296003 1.67808001,6.15296003 L31.8835202,6.15296003 C32.1924246,6.15296003 32.4428805,6.40341564 32.4428805,6.71232004 L32.4428805,19.1635426 Z" id="Shape"></path>
                    </g>
                </g>
            </g>
        </g>
    </g>
</svg>