<?xml version="1.0" encoding="UTF-8"?>
<svg width="38px" height="38px" viewBox="0 0 38 38" version="1.1" xmlns="http://www.w3.org/2000/svg" xmlns:xlink="http://www.w3.org/1999/xlink">
    <!-- Generator: Sketch 60.1 (88133) - https://sketch.com -->
    <title>1171977</title>
    <desc>Created with Sketch.</desc>
    <g id="Page-1" stroke="none" stroke-width="1" fill="none" fill-rule="evenodd">
        <g id="3" transform="translate(-33.000000, -483.000000)" fill="#7E7E7E" fill-rule="nonzero" stroke="#FFFFFF" stroke-width="0.7">
            <g id="Menu">
                <g id="1171977" transform="translate(34.000000, 484.000000)">
                    <path d="M33.7400001,20.4575001 L33.7400001,3.22000001 C33.7400001,2.64003909 33.2699611,2.17000001 32.6900001,2.17000001 L27.3700001,2.17000001 L27.3700001,1.05 C27.3700001,0.470039082 26.899961,0 26.3200001,0 C25.7400392,0 25.2700001,0.470039082 25.2700001,1.05 L25.2700001,2.17000001 L21.0700001,2.17000001 L21.0700001,1.05 C21.0700001,0.470039082 20.599961,0 20.0200001,0 C19.4400392,0 18.9700001,0.470039082 18.9700001,1.05 L18.9700001,2.17000001 L14.7700001,2.17000001 L14.7700001,1.05 C14.7700001,0.470039082 14.299961,0 13.7200001,0 C13.1400391,0 12.6700001,0.470039082 12.6700001,1.05 L12.6700001,2.17000001 L8.47000004,2.17000001 L8.47000004,1.05 C8.47000004,0.470039082 7.99996095,0 7.42000003,0 C6.84003911,0 6.37000003,0.470039082 6.37000003,1.05 L6.37000003,2.17000001 L1.05,2.17000001 C0.470039082,2.17000001 0,2.64003909 0,3.22000001 L0,30.5900001 C0,31.1699611 0.470039082,31.6400001 1.05,31.6400001 L18.5363282,31.6400001 C20.2338282,34.1706642 23.1205079,35.8400002 26.3900001,35.8400002 C31.6006251,35.8400002 35.8400002,31.6006251 35.8400002,26.3900001 C35.8400002,24.1450783 35.0525001,22.0806251 33.7400001,20.4575001 Z M6.37000003,4.27000002 L6.37000003,5.32000002 C6.37000003,5.89996095 6.84003911,6.37000003 7.42000003,6.37000003 C7.99996095,6.37000003 8.47000004,5.89996095 8.47000004,5.32000002 L8.47000004,4.27000002 L12.6700001,4.27000002 L12.6700001,5.32000002 C12.6700001,5.89996095 13.1400391,6.37000003 13.7200001,6.37000003 C14.299961,6.37000003 14.7700001,5.89996095 14.7700001,5.32000002 L14.7700001,4.27000002 L18.9700001,4.27000002 L18.9700001,5.32000002 C18.9700001,5.89996095 19.4400392,6.37000003 20.0200001,6.37000003 C20.599961,6.37000003 21.0700001,5.89996095 21.0700001,5.32000002 L21.0700001,4.27000002 L25.2700001,4.27000002 L25.2700001,5.32000002 C25.2700001,5.89996095 25.7400392,6.37000003 26.3200001,6.37000003 C26.899961,6.37000003 27.3700001,5.89996095 27.3700001,5.32000002 L27.3700001,4.27000002 L31.6400001,4.27000002 L31.6400001,8.47000004 L2.10000001,8.47000004 L2.10000001,4.27000002 L6.37000003,4.27000002 Z M2.10000001,29.5400001 L2.10000001,10.57 L31.6400001,10.57 L31.6400001,18.5363282 C30.137461,17.528711 28.331133,16.9400001 26.3900001,16.9400001 C23.0721094,16.9400001 20.1485157,18.6591017 18.4619532,21.2529298 C18.3200392,21.1812892 18.1600782,21.1400001 17.9900001,21.1400001 L15.8900001,21.1400001 C15.3100391,21.1400001 14.8400001,21.6100392 14.8400001,22.1900001 C14.8400001,22.769961 15.3100391,23.2400001 15.8900001,23.2400001 L17.480586,23.2400001 C17.2435157,23.9088283 17.0794532,24.6121094 16.9987892,25.3400001 L15.8900001,25.3400001 C15.3100391,25.3400001 14.8400001,25.8100392 14.8400001,26.3900001 C14.8400001,26.969961 15.3100391,27.4400001 15.8900001,27.4400001 L16.9987892,27.4400001 C17.0794532,28.1678908 17.2432422,28.871172 17.480586,29.5400001 L2.10000001,29.5400001 Z M26.3900001,33.7400001 C22.3371094,33.7400001 19.0400001,30.4428908 19.0400001,26.3900001 C19.0400001,22.3371094 22.3371094,19.0400001 26.3900001,19.0400001 C30.4428908,19.0400001 33.7400001,22.3371094 33.7400001,26.3900001 C33.7400001,30.4428908 30.4428908,33.7400001 26.3900001,33.7400001 Z" id="Shape"></path>
                    <path d="M30.5900001,25.3400001 L27.4400001,25.3400001 L27.4400001,22.1900001 C27.4400001,21.6100392 26.969961,21.1400001 26.3900001,21.1400001 C25.8100392,21.1400001 25.3400001,21.6100392 25.3400001,22.1900001 L25.3400001,26.3900001 C25.3400001,26.969961 25.8100392,27.4400001 26.3900001,27.4400001 L30.5900001,27.4400001 C31.1699611,27.4400001 31.6400001,26.969961 31.6400001,26.3900001 C31.6400001,25.8100392 31.1699611,25.3400001 30.5900001,25.3400001 Z" id="Path"></path>
                    <path d="M9.52000004,12.7400001 L7.42000003,12.7400001 C6.84003911,12.7400001 6.37000003,13.2100391 6.37000003,13.7900001 C6.37000003,14.369961 6.84003911,14.8400001 7.42000003,14.8400001 L9.52000004,14.8400001 C10.099961,14.8400001 10.57,14.369961 10.57,13.7900001 C10.57,13.2100391 10.099961,12.7400001 9.52000004,12.7400001 Z" id="Path"></path>
                    <path d="M9.52000004,16.9400001 L7.42000003,16.9400001 C6.84003911,16.9400001 6.37000003,17.4100392 6.37000003,17.9900001 C6.37000003,18.569961 6.84003911,19.0400001 7.42000003,19.0400001 L9.52000004,19.0400001 C10.099961,19.0400001 10.57,18.569961 10.57,17.9900001 C10.57,17.4100392 10.099961,16.9400001 9.52000004,16.9400001 Z" id="Path"></path>
                    <path d="M9.52000004,21.1400001 L7.42000003,21.1400001 C6.84003911,21.1400001 6.37000003,21.6100392 6.37000003,22.1900001 C6.37000003,22.769961 6.84003911,23.2400001 7.42000003,23.2400001 L9.52000004,23.2400001 C10.099961,23.2400001 10.57,22.769961 10.57,22.1900001 C10.57,21.6100392 10.099961,21.1400001 9.52000004,21.1400001 Z" id="Path"></path>
                    <path d="M15.8900001,14.8400001 L17.9900001,14.8400001 C18.569961,14.8400001 19.0400001,14.369961 19.0400001,13.7900001 C19.0400001,13.2100391 18.569961,12.7400001 17.9900001,12.7400001 L15.8900001,12.7400001 C15.3100391,12.7400001 14.8400001,13.2100391 14.8400001,13.7900001 C14.8400001,14.369961 15.3100391,14.8400001 15.8900001,14.8400001 Z" id="Path"></path>
                    <path d="M15.8900001,19.0400001 L17.9900001,19.0400001 C18.569961,19.0400001 19.0400001,18.569961 19.0400001,17.9900001 C19.0400001,17.4100392 18.569961,16.9400001 17.9900001,16.9400001 L15.8900001,16.9400001 C15.3100391,16.9400001 14.8400001,17.4100392 14.8400001,17.9900001 C14.8400001,18.569961 15.3100391,19.0400001 15.8900001,19.0400001 Z" id="Path"></path>
                    <path d="M9.52000004,25.3400001 L7.42000003,25.3400001 C6.84003911,25.3400001 6.37000003,25.8100392 6.37000003,26.3900001 C6.37000003,26.969961 6.84003911,27.4400001 7.42000003,27.4400001 L9.52000004,27.4400001 C10.099961,27.4400001 10.57,26.969961 10.57,26.3900001 C10.57,25.8100392 10.099961,25.3400001 9.52000004,25.3400001 Z" id="Path"></path>
                    <path d="M24.2900001,14.8400001 L26.3900001,14.8400001 C26.969961,14.8400001 27.4400001,14.369961 27.4400001,13.7900001 C27.4400001,13.2100391 26.969961,12.7400001 26.3900001,12.7400001 L24.2900001,12.7400001 C23.7100392,12.7400001 23.2400001,13.2100391 23.2400001,13.7900001 C23.2400001,14.369961 23.7100392,14.8400001 24.2900001,14.8400001 Z" id="Path"></path>
                </g>
            </g>
        </g>
    </g>
</svg>