<?xml version="1.0" encoding="UTF-8"?>
<svg width="21px" height="24px" viewBox="0 0 21 24" version="1.1" xmlns="http://www.w3.org/2000/svg" xmlns:xlink="http://www.w3.org/1999/xlink">
    <!-- Generator: Sketch 60.1 (88133) - https://sketch.com -->
    <title>126468</title>
    <desc>Created with Sketch.</desc>
    <g id="Symbols" stroke="none" stroke-width="1" fill="none" fill-rule="evenodd">
        <g id="kandidaat" transform="translate(-1443.000000, -21.000000)" fill="#000000" fill-rule="nonzero">
            <g id="Group">
                <g id="126468" transform="translate(1443.000000, 21.000000)">
                    <path d="M20.2137593,3.36895989 L15.3432059,3.36895989 L15.3432059,2.57484792 C15.3432059,1.15507196 14.1881339,0 12.768358,0 L8.13844454,0 C6.71866858,0 5.56359662,1.15507196 5.56359662,2.57484792 L5.56359662,3.36895989 L0.693043178,3.36895989 C0.332083189,3.36895989 0.0433151986,3.65772788 0.0433151986,4.01868787 C0.0433151986,4.37964786 0.332083189,4.66841585 0.693043178,4.66841585 L1.86736634,4.66841585 L1.86736634,19.934617 C1.86736634,21.8501113 3.42671349,23.4094584 5.34220783,23.4094584 L15.5645947,23.4094584 C17.480089,23.4094584 19.0394362,21.8501113 19.0394362,19.934617 L19.0394362,4.66841585 L20.2137593,4.66841585 C20.5747193,4.66841585 20.8634873,4.37964786 20.8634873,4.01868787 C20.8634873,3.65772788 20.5747193,3.36895989 20.2137593,3.36895989 Z M6.86305258,2.57484792 C6.86305258,1.87217914 7.43577576,1.29945596 8.13844454,1.29945596 L12.768358,1.29945596 C13.4710268,1.29945596 14.0437499,1.87217914 14.0437499,2.57484792 L14.0437499,3.36895989 L6.86305258,3.36895989 L6.86305258,2.57484792 Z M17.7399802,19.934617 C17.7399802,21.1330041 16.7629819,22.1100025 15.5645947,22.1100025 L5.34220783,22.1100025 C4.14382067,22.1100025 3.1668223,21.1330041 3.1668223,19.934617 L3.1668223,4.66841585 L17.744793,4.66841585 L17.744793,19.934617 L17.7399802,19.934617 Z" id="Shape"></path>
                    <path d="M10.4534013,19.7806074 C10.8143613,19.7806074 11.1031292,19.4918394 11.1031292,19.1308794 L11.1031292,7.64753895 C11.1031292,7.28657896 10.8143613,6.99781097 10.4534013,6.99781097 C10.0924413,6.99781097 9.80367328,7.28657896 9.80367328,7.64753895 L9.80367328,19.1260666 C9.80367328,19.4870266 10.0924413,19.7806074 10.4534013,19.7806074 Z" id="Path"></path>
                    <path d="M6.2133246,19.0635002 C6.57428459,19.0635002 6.86305258,18.7747322 6.86305258,18.4137722 L6.86305258,8.35983333 C6.86305258,7.99887334 6.57428459,7.71010535 6.2133246,7.71010535 C5.85236461,7.71010535 5.56359662,7.99887334 5.56359662,8.35983333 L5.56359662,18.4137722 C5.56359662,18.7747322 5.85717741,19.0635002 6.2133246,19.0635002 Z" id="Path"></path>
                    <path d="M14.6934779,19.0635002 C15.0544379,19.0635002 15.3432059,18.7747322 15.3432059,18.4137722 L15.3432059,8.35983333 C15.3432059,7.99887334 15.0544379,7.71010535 14.6934779,7.71010535 C14.3325179,7.71010535 14.0437499,7.99887334 14.0437499,8.35983333 L14.0437499,18.4137722 C14.0437499,18.7747322 14.3325179,19.0635002 14.6934779,19.0635002 Z" id="Path"></path>
                </g>
            </g>
        </g>
    </g>
</svg>