<?xml version="1.0" encoding="UTF-8"?>
<svg width="50px" height="44px" viewBox="0 0 50 44" version="1.1" xmlns="http://www.w3.org/2000/svg" xmlns:xlink="http://www.w3.org/1999/xlink">
    <!-- Generator: Sketch 61 (89581) - https://sketch.com -->
    <title>Group 11</title>
    <desc>Created with Sketch.</desc>
    <defs>
        <polygon id="path-1" points="0.0200600003 0.0600000009 19.3999603 0.0600000009 19.3999603 20.8199603 0.0200600003 20.8199603"></polygon>
        <polygon id="path-3" points="0 0.0299400004 19.3699803 0.0299400004 19.3699803 20.7999403 0 20.7999403"></polygon>
    </defs>
    <g id="CRM" stroke="none" stroke-width="1" fill="none" fill-rule="evenodd">
        <g id="Keuze" transform="translate(-361.000000, -434.000000)">
            <g id="Group" transform="translate(323.000000, 216.000000)">
                <g id="Group-11" transform="translate(38.000000, 218.000000)">
                    <g id="Group-3" transform="translate(14.800000, 0.040000)">
                        <mask id="mask-2" fill="white">
                            <use xlink:href="#path-1"></use>
                        </mask>
                        <g id="Clip-2"></g>
                        <path d="M1.00996002,15.2799602 C0.379960006,15.7999602 0.0200600003,16.5699602 0.0200600003,17.3799603 L0.0200600003,19.8299603 C0.0200600003,20.3799603 0.459960007,20.8199603 1.00996002,20.8199603 C1.55996002,20.8199603 1.99996003,20.3799603 1.99996003,19.8299603 L1.99996003,17.3799603 C1.99996003,17.1600603 2.09996003,16.9499603 2.27006003,16.8100603 C4.40996007,15.0600602 6.7200601,13.8900602 7.17006011,13.6699602 C7.55996011,13.4799602 7.82006012,13.0699602 7.82006012,12.6400602 L7.82006012,9.19006014 C7.82006012,8.85996013 7.64996011,8.54996013 7.37996011,8.36996012 C7.20996011,8.24996012 7.09996011,8.05996 7.09996011,7.84996012 L7.09996011,4.26996006 C7.09996011,3.04006005 8.09996012,2.04006003 9.32996014,2.04006003 L10.0999602,2.04006003 C11.3299602,2.04006003 12.3299602,3.04006005 12.3299602,4.26996006 L12.3299602,7.84996012 C12.3299602,8.05996 12.2299602,8.24996012 12.0499602,8.36996012 C11.7700602,8.54996013 11.6099602,8.85996013 11.6099602,9.19006014 L11.6099602,12.6400602 C11.6099602,13.0799602 11.8599602,13.4799602 12.2499602,13.6699602 C12.6900602,13.8900602 15.0099602,15.0600602 17.1499603,16.8100603 C17.3200603,16.9499603 17.4200603,17.1600603 17.4200603,17.3799603 L17.4200603,19.8299603 C17.4200603,20.3799603 17.8599603,20.8199603 18.4099603,20.8199603 C18.9599603,20.8199603 19.3999603,20.3799603 19.3999603,19.8299603 L19.3999603,17.3799603 C19.3999603,16.5600602 19.0400603,15.7900602 18.4099603,15.2799602 C16.5299602,13.7400602 14.5299602,12.6199602 13.5900602,12.1299602 L13.5900602,9.64006014 C14.0499602,9.15996014 14.3099602,8.51996013 14.3099602,7.84006012 L14.3099602,4.26996006 C14.3099602,1.94996003 12.4200602,0.0599600009 10.0999602,0.0599600009 L9.32996014,0.0599600009 C7.0099601,0.0599600009 5.12006008,1.94996003 5.12006008,4.26996006 L5.12006008,7.84996012 C5.12006008,8.52996013 5.37996008,9.16996014 5.84006009,9.64996014 L5.84006009,12.1299602 C4.89006007,12.6199602 2.89006004,13.7400602 1.00996002,15.2799602" id="Fill-1" fill="#08009D" mask="url(#mask-2)"></path>
                    </g>
                    <path d="M48.0299807,43.4399806 C48.5799807,43.4399806 49.0199807,43.0000806 49.0199807,42.4500806 L49.0199807,40.0000806 C49.0199807,39.1799806 48.6599807,38.4099806 48.0299807,37.9000806 C46.1499804,36.3599805 44.1499804,35.2399805 43.2099806,34.7500805 L43.2099806,32.2599805 C43.6699807,31.7799805 43.9299807,31.1399805 43.9299807,30.4599805 L43.9299807,26.8799804 C43.9299807,24.5599804 42.0400806,22.6699803 39.7199806,22.6699803 L38.9499806,22.6699803 C36.6299805,22.6699803 34.7400805,24.5599804 34.7400805,26.8799804 L34.7400805,30.4599805 C34.7400805,31.1399805 34.9999805,31.7799805 35.4599805,32.2599805 L35.4599805,34.7500805 C34.5199805,35.2399805 32.5199805,36.3599805 30.6400805,37.9000806 C30.0099804,38.4199806 29.6499804,39.1799806 29.6499804,40.0000806 L29.6499804,42.4500806 C29.6499804,43.0000806 30.0900804,43.4399806 30.6400805,43.4399806 C31.1900805,43.4399806 31.6299805,43.0000806 31.6299805,42.4500806 L31.6299805,40.0000806 C31.6299805,39.7799806 31.7299805,39.5699806 31.8999805,39.4299806 C34.0400805,37.6699803 36.3499805,36.5000805 36.7999805,36.2899805 C37.1900806,36.1000805 37.4400806,35.6899805 37.4400806,35.2599805 L37.4400806,31.8099805 C37.4400806,31.4799805 37.2699806,31.1699803 36.9999806,30.9899805 C36.8299805,30.8699805 36.7199805,30.6799805 36.7199805,30.4699805 L36.7199805,26.8899804 C36.7199805,25.6599804 37.7199806,24.6599804 38.9499806,24.6599804 L39.7199806,24.6599804 C40.9499806,24.6599804 41.9499806,25.6599804 41.9499806,26.8899804 L41.9499806,30.4699805 C41.9499806,30.6799805 41.8499806,30.8699805 41.6699806,30.9899805 C41.3900806,31.1699803 41.2299806,31.4799805 41.2299806,31.8099805 L41.2299806,35.2599805 C41.2299806,35.7000805 41.4799806,36.1000805 41.8699806,36.2899805 C42.3099806,36.5099805 44.6299807,37.6799806 46.7699807,39.4299806 C46.9400807,39.5699806 47.0400807,39.7799806 47.0400807,40.0000806 L47.0400807,42.4500806 C47.0400807,43.0000806 47.4900807,43.4399806 48.0299807,43.4399806" id="Fill-4" fill="#08009D"></path>
                    <g id="Group-8" transform="translate(0.000000, 22.640000)">
                        <mask id="mask-4" fill="white">
                            <use xlink:href="#path-3"></use>
                        </mask>
                        <g id="Clip-7"></g>
                        <path d="M18.3799803,15.2600402 C16.49998,13.7200402 14.49998,12.5999402 13.5599802,12.1100402 L13.5599802,9.62004014 C14.0199802,9.14004014 14.2799802,8.49994013 14.2799802,7.82004012 L14.2799802,4.24004006 C14.2799802,1.92004003 12.3900802,0.0299400004 10.0699802,0.0299400004 L9.29998014,0.0299400004 C6.9799801,0.0299400004 5.09008008,1.92004003 5.09008008,4.24004006 L5.09008008,7.82004012 C5.09008008,8.49994013 5.34998008,9.14004014 5.80998009,9.62004014 L5.80998009,12.1100402 C4.86998007,12.5999402 2.86998004,13.7200402 0.990080015,15.2600402 C0.359980005,15.7799402 -2.00000003e-05,16.5400402 -2.00000003e-05,17.3600403 L-2.00000003e-05,19.8100403 C-2.00000003e-05,20.3600403 0.440080007,20.7999403 0.990080015,20.7999403 C1.54008002,20.7999403 1.97998003,20.3600403 1.97998003,19.8100403 L1.97998003,17.3600403 C1.97998003,17.1400403 2.07998003,16.9299403 2.24998003,16.7900403 C4.39008007,15.02994 6.6999801,13.8600402 7.14998011,13.6499402 C7.54008011,13.4600402 7.79008012,13.0499402 7.79008012,12.6200402 L7.79008012,9.17004014 C7.79008012,8.84004013 7.61998011,8.52994 7.34998011,8.34994012 C7.17998011,8.22994012 7.06998011,8.04004012 7.06998011,7.82994012 L7.06998011,4.24994006 C7.06998011,3.02004005 8.06998012,2.02004003 9.29998014,2.02004003 L10.0699802,2.02004003 C11.2999802,2.02004003 12.2999802,3.02004005 12.2999802,4.24994006 L12.2999802,7.82994012 C12.2999802,8.04004012 12.1999802,8.22994012 12.0199802,8.34994012 C11.7400802,8.52994 11.5799802,8.84004013 11.5799802,9.17004014 L11.5799802,12.6200402 C11.5799802,13.0600402 11.8299802,13.4600402 12.2199802,13.6499402 C12.6599802,13.8700402 14.9799802,15.02994 17.1199803,16.7900403 C17.2900803,16.9299403 17.3900803,17.1400403 17.3900803,17.3600403 L17.3900803,19.8100403 C17.3900803,20.3600403 17.8299803,20.7999403 18.3799803,20.7999403 C18.9299803,20.7999403 19.3699803,20.3600403 19.3699803,19.8100403 L19.3699803,17.3600403 C19.3699803,16.5400402 19.0099803,15.7700402 18.3799803,15.2600402" id="Fill-6" fill="#08009D" mask="url(#mask-4)"></path>
                    </g>
                    <path d="M30.1400404,31.9899805 C30.3000405,32.0799805 30.4700405,32.1199805 30.6299405,32.1199805 C30.9700405,32.1199805 31.3099405,31.9399805 31.4900405,31.6199805 C31.7599405,31.1500805 31.6000405,30.5399805 31.1299405,30.2699805 L25.5799404,27.0699804 L25.5799404,20.6599803 C25.5799404,20.1099803 25.1400404,19.6699803 24.5900404,19.6699803 C24.0400404,19.6699803 23.6000404,20.1099803 23.6000404,20.6599803 L23.6000404,27.0699804 L18.0500403,30.2799805 C17.5799403,30.5500805 17.4099403,31.1599805 17.6900403,31.6299805 C17.8700403,31.9500805 18.2099403,32.1299805 18.5500403,32.1299805 C18.7200403,32.1299805 18.8900403,32.0899805 19.0400403,32.0000805 L24.5900404,28.7899804 L30.1400404,31.9899805 Z" id="Fill-9" fill="#C9002A"></path>
                </g>
            </g>
        </g>
    </g>
</svg>