<?xml version="1.0" encoding="UTF-8"?>
<svg width="46px" height="34px" viewBox="0 0 46 34" version="1.1" xmlns="http://www.w3.org/2000/svg" xmlns:xlink="http://www.w3.org/1999/xlink">
    <!-- Generator: Sketch 60.1 (88133) - https://sketch.com -->
    <title>476700</title>
    <desc>Created with Sketch.</desc>
    <g id="Page-1" stroke="none" stroke-width="1" fill="none" fill-rule="evenodd">
        <g id="3" transform="translate(-30.000000, -218.000000)" fill="#7E7E7E" fill-rule="nonzero">
            <g id="Menu">
                <g id="Group">
                    <g id="476700" transform="translate(30.000000, 218.000000)">
                        <path d="M40.2030794,15.0641398 C38.6525214,14.2889498 35.7453364,14.2799608 35.6223384,14.2799608 C35.2537004,14.2799608 34.9548384,14.5788228 34.9548384,14.9474608 C34.9548384,15.3160988 35.2537004,15.6149607 35.6223384,15.6149607 C36.3725194,15.6150497 38.5506164,15.7305717 39.6060674,16.2582527 C39.7019204,16.3062237 39.8037364,16.3288297 39.9040394,16.3288297 C40.1488784,16.3288297 40.3846394,16.1935497 40.5015853,15.9597467 C40.6665023,15.6300017 40.5328243,15.2290568 40.2030794,15.0641398 Z" id="Path"></path>
                        <path d="M43.5309673,24.5676486 L40.7741923,23.7799986 C40.6551993,23.7460006 40.5720733,23.6358186 40.5720733,23.5120196 L40.5720733,22.5918486 C40.7963533,22.4364546 41.0103093,22.2625486 41.2102923,22.0684396 C42.1795023,21.1278877 42.7132353,19.8663127 42.7132353,18.5160047 L42.7132353,17.2462417 L42.9797903,16.7132207 C43.2723333,16.1280457 43.4269263,15.4729168 43.4269263,14.8187668 L43.4269263,11.3789168 C43.4269263,11.0102788 43.1280643,10.7114168 42.7594263,10.7114168 L36.3360294,10.7114168 C34.0003135,10.7114168 32.0999855,12.6117448 32.0999855,14.9474608 L32.0999855,14.9872438 C32.0999855,15.5312118 32.2285905,16.0759807 32.4718275,16.5624547 L32.8136765,17.2461527 L32.8136765,18.3364027 C32.8136765,20.0642487 33.6651395,21.6145397 34.9548384,22.5474376 L34.9550164,23.5118416 C34.9550164,23.6605606 34.9550164,23.7221486 34.4038394,23.8796786 L33.0586935,24.2639806 L29.1675245,22.8490586 C29.1814975,22.6654516 29.1195535,22.4787296 28.9856085,22.3380206 L27.7421896,21.0316787 L27.7421896,18.8387187 C27.8736426,18.7304057 28.0032265,18.6191557 28.1288055,18.5014977 C29.6974305,17.0312177 30.5970425,14.9553818 30.5970425,12.8062988 L30.5970425,11.0549568 C31.0707005,10.0242478 31.3107335,8.93355286 31.3107335,7.81028387 L31.3107335,0.673373989 C31.3107335,0.304735995 31.0118715,0.00587399991 30.6432335,0.00587399991 L20.6512927,0.00587399991 C17.1349027,0.00587399991 14.2741758,2.86668995 14.2741758,6.3829909 L14.2741758,7.81046187 C14.2741758,8.93373086 14.5142088,10.0244258 14.9878668,11.0551348 L14.9878668,12.5619938 C14.9878668,15.0571978 16.0973407,17.3051597 17.8427197,18.7871877 L17.8427197,21.0317677 L16.5993007,22.3381096 C16.4653557,22.4788186 16.4034117,22.6655406 16.4173847,22.8491476 L12.3104798,24.3424786 C12.0128638,24.4507026 11.7363408,24.5972856 11.4852718,24.7748406 L10.8403778,24.4523936 C12.7601078,23.6167726 13.3682448,22.4415276 13.3974368,22.3831436 C13.4914208,22.1952646 13.4914208,21.9740106 13.3974368,21.7861316 C12.9162138,20.8236857 12.8579188,19.0596167 12.8111048,17.6422027 C12.7955298,17.1703247 12.7807558,16.7245237 12.7525428,16.3275837 C12.5249698,13.1258978 10.0909978,10.7114168 7.09080789,10.7114168 C4.09061793,10.7114168 1.65655697,13.1258088 1.42907298,16.3275837 C1.40085998,16.7246127 1.38608598,17.1704137 1.37051098,17.6423807 C1.32369698,19.0597057 1.26531298,20.8235967 0.784178987,21.7860426 C0.690194989,21.9739216 0.690194989,22.1951756 0.784178987,22.3830546 C0.813370987,22.4414386 1.42026198,23.6142806 3.34381895,24.4508806 L1.55251598,25.3464876 C0.59487599,25.8256636 0,26.7881986 0,27.8587796 L0,32.7901805 C0,33.1588185 0.298861995,33.4576805 0.667499989,33.4576805 C1.03613798,33.4576805 1.33499998,33.1588185 1.33499998,32.7901805 L1.33499998,27.8587796 C1.33499998,27.2970116 1.64712297,26.7919366 2.14952797,26.5406896 L4.38013493,25.4254306 L5.15603692,26.1627956 C5.69858091,26.6783726 6.3945609,26.9360276 7.09080789,26.9360276 C7.78687687,26.9360276 8.48321286,26.6781946 9.02557885,26.1627956 L9.80139184,25.4255196 L10.5286998,25.7891736 C10.1862278,26.3371466 9.99185184,26.9797266 9.99185184,27.6528336 L9.99185184,32.7903585 C9.99185184,33.1589965 10.2907138,33.4580365 10.6593518,33.4580365 C11.0279898,33.4580365 11.3268518,33.1589965 11.3268518,32.7903585 L11.3268518,27.6528336 C11.3268518,26.7364896 11.9054408,25.9103916 12.7666938,25.5972006 L17.0967217,24.0227016 L18.8992387,26.7266106 C19.1296597,27.0722866 19.4989207,27.2939856 19.9123257,27.3349256 C19.9584277,27.3394646 20.0042627,27.3416896 20.0500087,27.3416896 C20.4147307,27.3416896 20.7640557,27.1981326 21.0251817,26.9370956 L22.1248656,25.8374116 L22.1248656,32.7904475 C22.1248656,33.1590855 22.4237276,33.4580365 22.7923656,33.4580365 C23.1610036,33.4580365 23.4598656,33.1590855 23.4598656,32.7904475 L23.4598656,25.8374116 L24.5595496,26.9370956 C24.8205866,27.1982216 25.1699116,27.3417786 25.5347226,27.3417786 C25.5803796,27.3417786 25.6263036,27.3395536 25.6723166,27.3350146 C26.0858106,27.2940746 26.4550716,27.0723756 26.6854926,26.7266996 L28.4880985,24.0228796 L32.8180375,25.5973786 C33.6792015,25.9105696 34.2578794,26.7366676 34.2578794,27.6530116 L34.2578794,32.7905365 C34.2578794,33.1591745 34.5567414,33.4580365 34.9253794,33.4580365 C35.2940174,33.4580365 35.5928794,33.1591745 35.5928794,32.7905365 L35.5928794,27.6530116 C35.5928794,26.7249196 35.2241524,25.8544996 34.6056024,25.2107626 L34.7705194,25.1636816 C34.9368604,25.1161556 35.1638104,25.0510966 35.3916504,24.9394016 L37.0959114,26.6436626 L37.0959114,32.7905365 C37.0959114,33.1591745 37.3947734,33.4580365 37.7634114,33.4580365 C38.1320494,33.4580365 38.4309114,33.1591745 38.4309114,32.7905365 L38.4309114,26.6436626 L40.1233354,24.9512386 C40.2133144,24.9969846 40.3078324,25.0356106 40.4073344,25.0640016 L43.1641983,25.8516516 C43.7934283,26.0314316 44.2329993,26.6141146 44.2329993,27.2686206 L44.2329993,32.7905365 C44.2329993,33.1591745 44.5318613,33.4580365 44.9004993,33.4580365 C45.2691373,33.4580365 45.5679993,33.1591745 45.5679993,32.7905365 L45.5679993,27.2686206 C45.5679993,26.0210186 44.7303313,24.9103876 43.5309673,24.5676486 Z M4.28223493,23.3886656 C3.03365395,22.9393936 2.40736096,22.3404236 2.14000497,22.0133486 C2.32227696,21.5368427 2.44046896,20.9910947 2.52047996,20.4149977 C2.88858395,21.2976107 3.50508694,22.0510846 4.28223493,22.5886446 L4.28223493,23.3886656 Z M8.10611987,25.1951876 C7.53678688,25.7361296 6.64491789,25.7360406 6.0757629,25.1950986 L5.45498791,24.6052066 C5.55974091,24.4089616 5.61732391,24.1864616 5.61732391,23.9533706 L5.61732391,23.2419046 C6.0829719,23.3874196 6.57798989,23.4659176 7.09098589,23.4659176 C7.60335888,23.4659176 8.09810987,23.3870636 8.56455886,23.2423496 L8.56446986,23.9532816 C8.56446986,24.1864616 8.62196386,24.4090506 8.72680586,24.6053846 L8.10611987,25.1951876 Z M7.09116389,22.1309176 C5.09791992,22.1309176 3.47642894,20.5093377 3.47642894,18.5161827 C3.47642894,18.1475447 3.17756695,17.8486827 2.80892895,17.8486827 C2.77154896,17.8486827 2.73505896,17.8525097 2.69936996,17.8584727 C2.70132796,17.8010677 2.70319696,17.7435737 2.70515496,17.6867027 C2.72001796,17.2277297 2.73434696,16.7942107 2.76077996,16.4223687 C2.84604195,15.2230048 3.32530695,14.1178028 4.11028693,13.3102168 C4.90229792,12.4953328 5.9608639,12.0465948 7.09098589,12.0465948 C8.22110787,12.0465948 9.27958485,12.4953328 10.0716848,13.3102168 C10.8566648,14.1178028 11.3359298,15.2230048 11.4211918,16.4223687 C11.4475358,16.7941217 11.4619538,17.2275517 11.4770838,17.6864357 C11.4784188,17.7258627 11.4797538,17.7658237 11.4810888,17.8055177 C10.7548488,16.6866097 9.63327085,15.8620247 8.18408387,15.3963768 C6.84525689,14.9662398 5.69377491,14.9928508 5.64518091,14.9940968 C5.47038491,14.9989918 5.30448891,15.0721498 5.18318192,15.1979958 L3.97883394,16.4470217 C3.72295894,16.7124197 3.73061294,17.1349917 3.99601094,17.3908667 C4.26140893,17.6467417 4.68398092,17.6389987 4.93985592,17.3736897 L5.9419959,16.3344367 C6.80502889,16.3766227 9.58156185,16.6995147 10.6613988,19.0773277 C10.3896818,20.8295597 8.88362386,22.1309176 7.09116389,22.1309176 Z M9.89938084,23.3908906 L9.89946984,22.5947856 C10.6759948,22.0601626 11.2933878,21.3081127 11.6617588,20.4188247 C11.7417698,20.9935867 11.8598728,21.5380887 12.0417888,22.0135266 C11.7759458,22.3374866 11.1467158,22.9417966 9.89938084,23.3908906 Z M16.3228667,12.5619048 L16.3228667,10.9057928 C16.3228667,10.8053118 16.3001717,10.7060768 16.2564727,10.6155638 C15.8269587,9.72609784 15.6091757,8.78234186 15.6091757,7.81046187 L15.6091757,6.3830799 C15.6091757,3.60280894 17.8711107,1.34096298 20.6512927,1.34096298 L29.9757335,1.34096298 L29.9757335,7.81055087 C29.9757335,8.78243086 29.7579505,9.72618684 29.3284365,10.6156528 C29.2847375,10.7061658 29.2620425,10.8054008 29.2620425,10.9058818 L29.2620425,12.8064768 C29.2620425,14.6141558 28.5353575,16.2908267 27.2158436,17.5276597 C27.0511046,17.6819857 26.8801356,17.8266997 26.7033816,17.9615347 C26.6994656,17.9642047 26.6957276,17.9671417 26.6919006,17.9699007 C25.4557796,18.9084057 23.9417116,19.3645307 22.3605376,19.2620917 C18.9748887,19.0428847 16.3228667,16.0998327 16.3228667,12.5619048 Z M20.0812477,25.9929836 C20.0766197,25.9976116 20.0658507,26.0085586 20.0440457,26.0062446 C20.0223297,26.0041086 20.0137857,25.9913816 20.0101367,25.9858636 L17.9342117,22.8719316 L18.6022457,22.1699886 L21.7515107,24.3226316 L20.0812477,25.9929836 Z M22.7924546,23.4170566 L19.1777197,20.9462387 L19.1777197,19.7002387 C20.1130207,20.2058477 21.1602837,20.5220647 22.2741186,20.5941547 C22.4500716,20.6055467 22.6249566,20.6111537 22.7993076,20.6111537 C24.0756566,20.6111537 25.3040346,20.3060617 26.4071896,19.7269387 L26.4071896,20.9462387 L22.7924546,23.4170566 Z M25.5747726,25.9860416 C25.5711236,25.9915596 25.5625796,26.0042866 25.5408636,26.0064226 C25.5190586,26.0091816 25.5083786,25.9977006 25.5036616,25.9931616 L23.8333986,24.3228986 L26.9826636,22.1701666 L27.6507866,22.8721096 L25.5747726,25.9860416 Z M37.7634114,25.4228496 L36.2486314,23.9081586 C36.2750644,23.7880976 36.2900164,23.6566446 36.2899274,23.5116636 L36.2898384,23.2299786 C36.7101854,23.3679286 37.1532274,23.4498086 37.6116664,23.4635146 C37.6631084,23.4651166 37.7141054,23.4658286 37.7653694,23.4658286 C38.2719574,23.4658286 38.7664414,23.3892886 39.2370734,23.2432396 L39.2370734,23.5120196 C39.2370734,23.6451636 39.2538054,23.7756376 39.2853114,23.9010386 L37.7634114,25.4228496 Z M40.2805984,21.1104437 C39.5731374,21.7969896 38.6385484,22.1595756 37.6518054,22.1291376 C35.7201494,22.0711986 34.1486765,20.3697857 34.1486765,18.3365807 L34.1486765,17.0887117 C34.1486765,16.9850267 34.1245575,16.8828547 34.0781885,16.7902057 L33.6658515,15.9655317 C33.5148185,15.6633767 33.4349855,15.3251768 33.4349855,14.9873328 L33.4349855,14.9475498 C33.4349855,13.3478638 34.7364324,12.0465058 36.3360294,12.0465058 L42.0919263,12.0465058 L42.0919263,14.8188558 C42.0919263,15.2668818 41.9860163,15.7155307 41.7856773,16.1162977 L41.4487233,16.7902057 C41.4023543,16.8829437 41.3782353,16.9850267 41.3782353,17.0887117 L41.3782353,18.5160937 C41.3782353,19.5022137 40.9884153,20.4235417 40.2805984,21.1104437 Z" id="Shape"></path>
                        <path d="M42.0456463,27.8404456 C41.6770083,27.8404456 41.3781463,28.1393075 41.3781463,28.5079455 L41.3781463,32.7901805 C41.3781463,33.1588185 41.6770083,33.4576805 42.0456463,33.4576805 C42.4142843,33.4576805 42.7131463,33.1588185 42.7131463,32.7901805 L42.7131463,28.5079455 C42.7131463,28.1393965 42.4142843,27.8404456 42.0456463,27.8404456 Z" id="Path"></path>
                        <path d="M3.52235294,28.7227915 C3.15371495,28.7227915 2.85485295,29.0216535 2.85485295,29.3902915 L2.85485295,32.7901805 C2.85485295,33.1588185 3.15371495,33.4576805 3.52235294,33.4576805 C3.89099094,33.4576805 4.18985293,33.1588185 4.18985293,32.7901805 L4.18985293,29.3902915 C4.18985293,29.0217425 3.89099094,28.7227915 3.52235294,28.7227915 Z" id="Path"></path>
                        <path d="M28.2603475,8.05227487 C25.7357736,5.52770091 20.4537127,6.0103479 18.2997347,6.3350199 C17.6212877,6.4372809 17.1289397,7.01141989 17.1289397,7.70019088 L17.1289397,9.23793285 C17.1289397,9.60657085 17.4278017,9.90543284 17.7964397,9.90543284 C18.1650777,9.90543284 18.4639397,9.60657085 18.4639397,9.23793285 L18.4639397,7.70010188 C18.4639397,7.67740688 18.4788917,7.65800488 18.4988277,7.65497888 C19.3591907,7.52530588 21.0664777,7.32523388 22.8353526,7.44315888 C24.9168846,7.58173188 26.4245446,8.10425087 27.3164136,8.99620886 C27.5770946,9.25688985 27.9997555,9.25688985 28.2603475,8.99620886 C28.5210285,8.73552786 28.5210285,8.31286687 28.2603475,8.05227487 Z" id="Path"></path>
                        <path d="M14.9416758,29.2679165 C14.5730378,29.2679165 14.2741758,29.5667785 14.2741758,29.9354165 L14.2741758,32.7902695 C14.2741758,33.1589075 14.5730378,33.4577695 14.9416758,33.4577695 C15.3103138,33.4577695 15.6091757,33.1589075 15.6091757,32.7902695 L15.6091757,29.9354165 C15.6091757,29.5668675 15.3103138,29.2679165 14.9416758,29.2679165 Z" id="Path"></path>
                        <path d="M30.6432335,29.2679165 C30.2745955,29.2679165 29.9757335,29.5667785 29.9757335,29.9354165 L29.9757335,32.7902695 C29.9757335,33.1589075 30.2745955,33.4577695 30.6432335,33.4577695 C31.0118715,33.4577695 31.3107335,33.1589075 31.3107335,32.7902695 L31.3107335,29.9354165 C31.3107335,29.5668675 31.0118715,29.2679165 30.6432335,29.2679165 Z" id="Path"></path>
                    </g>
                </g>
            </g>
        </g>
    </g>
</svg>