<?xml version="1.0" encoding="UTF-8"?>
<svg width="45px" height="45px" viewBox="0 0 45 45" version="1.1" xmlns="http://www.w3.org/2000/svg" xmlns:xlink="http://www.w3.org/1999/xlink">
    <!-- Generator: Sketch 60.1 (88133) - https://sketch.com -->
    <title>784719</title>
    <desc>Created with Sketch.</desc>
    <g id="Page-1" stroke="none" stroke-width="1" fill="none" fill-rule="evenodd" opacity="0.704613095">
        <g id="3" transform="translate(-30.000000, -386.000000)" fill="#464646" fill-rule="nonzero">
            <g id="Menu">
                <g id="Group">
                    <g id="784719" transform="translate(30.000000, 386.000000)">
                        <path d="M30.2827882,24.8976117 L24.2875004,21.2138298 C24.2144492,21.1688951 24.1304446,21.1384499 24.0456638,21.1251679 L22.1686703,20.7939794 C21.8214399,20.7325715 21.4804193,20.9714757 21.4191839,21.3187061 C21.3579485,21.6659366 21.596594,22.0069572 21.9438244,22.0681926 L23.7150791,22.3807517 L29.6054905,26.0001071 C29.893038,26.1768272 30.2874455,26.0910114 30.4783101,25.8132961 C30.6830605,25.5152265 30.5906037,25.0869239 30.2827882,24.8976117 Z" id="Path"></path>
                        <path d="M43.9439681,25.1050357 C43.6998891,24.843966 43.2905608,24.8301665 43.0294911,25.074073 L40.4068061,27.5252128 L28.3893215,15.6678027 L43.9136092,1.11896859 C44.1742476,0.874630835 44.1875296,0.465216322 43.9432781,0.204577886 C43.6990266,-0.0560605505 43.2895259,-0.0693425886 43.0288874,0.174908918 L27.0136818,15.1837845 C26.7495935,15.4312271 26.7440737,15.8621171 27.0016935,16.1163733 L28.0646878,17.1650506 L27.7253921,17.4646727 L20.6202779,16.8528364 C20.510658,16.8435218 20.3967257,16.8624099 20.2966792,16.9086383 L14.6670787,19.4725891 C14.6506918,19.468363 14.6343048,19.4642231 14.6173142,19.4612045 L11.3790843,18.8897319 L11.6409302,18.2203689 C11.7703869,17.8893529 11.6086738,17.5159034 11.2786928,17.3840317 L0.92767274,13.2436582 C0.595794281,13.1107516 0.21941237,13.2722922 0.0867644828,13.6040844 C-0.0459696514,13.9357904 0.115398487,14.3123448 0.447190699,14.4449927 L10.2019852,18.3469795 L4.45345013,33.0373449 L0.903351086,31.7799498 C0.566470301,31.6607565 0.196815656,31.8369591 0.0775360537,32.1738399 C-0.0417435484,32.5106344 0.134631568,32.8803753 0.471426106,32.9996549 L4.61179962,34.4660264 C4.93677832,34.5811662 5.30470803,34.4127258 5.43019741,34.091887 L6.39090276,31.6367798 L8.90819397,33.0474358 L8.63056487,33.4974726 C7.84390598,34.772462 8.24107342,36.4497937 9.51614908,37.2365388 C10.1904281,37.6525944 11.0274553,37.7512609 11.7809091,37.5073544 C11.9017411,38.2925471 12.3631626,38.9932178 13.0397703,39.4106532 C13.7140493,39.8267088 14.5509902,39.9253753 15.3045303,39.6814688 C15.4254486,40.4666615 15.8866975,41.1672459 16.5633053,41.5847676 C17.2396542,42.0021169 18.0722828,42.1003522 18.8282377,41.8563594 C18.9493285,42.6412071 19.4104912,43.3415328 20.0869265,43.758882 C21.070056,44.3654572 22.3713508,44.2748116 23.2575387,43.5320524 C23.4809184,43.3448102 23.673163,43.1213442 23.8261652,42.8732978 L24.2674911,42.1581377 L24.6308497,42.3813449 C25.615273,42.9861952 26.9162227,42.8930484 27.8010307,42.1486505 C28.0240655,41.9609771 28.2158788,41.7371661 28.3684497,41.488861 C28.6716942,40.9952694 28.7971836,40.4420811 28.7640647,39.9035549 C28.9695051,39.9529744 29.1797753,39.9795385 29.3919429,39.9795385 C30.3315177,39.9795385 31.2202931,39.4840494 31.7119872,38.6838498 C32.0081594,38.201729 32.143481,37.6520769 32.1091547,37.0988024 C32.3140775,37.1479632 32.5239165,37.1743548 32.7353941,37.1743548 C33.674969,37.1743548 34.5638305,36.6788657 35.0554384,35.8786661 C35.3518694,35.3962003 35.4871047,34.8462032 35.4525196,34.2924975 C35.6596849,34.3418308 35.8700414,34.3676186 36.0794491,34.3676186 C36.9931498,34.3676186 37.8865825,33.9075771 38.3989759,33.0736549 C39.1833061,31.797113 38.7829476,30.1205576 37.5064057,29.3362273 L37.0630961,29.0638593 L38.5499082,27.5103783 L39.9406411,28.8825681 C40.1845476,29.123111 40.5865448,29.1284583 40.8367474,28.8947289 L43.9132642,26.0195127 C44.1741613,25.7755199 44.1879609,25.3661054 43.9439681,25.1050357 Z M12.1541861,35.6715008 C11.7420117,36.3393113 10.8634135,36.5473391 10.1955167,36.1354234 C9.52761993,35.7233352 9.31959216,34.844737 9.73159408,34.1768402 L13.3551756,28.3041957 C13.7595878,27.6487185 14.6274051,27.4343947 15.2900408,27.8258699 C15.9757044,28.2312308 16.1649304,29.1712368 15.7532734,29.8385299 L12.1541861,35.6715008 Z M15.6776348,37.8456152 C15.2656329,38.5134257 14.3869484,38.7215397 13.7191379,38.3095378 C13.0593484,37.9023657 12.8474395,37.0117792 13.2552153,36.3509546 L16.153977,31.6528218 C16.5583892,30.9974308 17.4262065,30.7830208 18.0888422,31.1744959 C18.7745059,31.5798568 18.9637318,32.5198629 18.5519886,33.1871559 L15.6776348,37.8456152 Z M19.2015148,40.0197296 C19.0017667,40.3432421 18.6880001,40.5697267 18.318173,40.6573536 C17.9480871,40.7450668 17.5662716,40.6832277 17.2427591,40.4836522 C16.5830558,40.0764801 16.3711469,39.1858073 16.7789228,38.525069 L18.9530372,35.0014478 C19.3574493,34.3459706 20.2253529,34.1316468 20.8879024,34.523122 C21.573566,34.9284829 21.7627919,35.8684889 21.351135,36.535782 L19.2015148,40.0197296 Z M24.1500227,39.8845805 L22.7250497,42.1939302 C22.3178776,42.8537198 21.4272911,43.0654561 20.7663803,42.6577666 C20.106677,42.2506807 19.8948544,41.3599217 20.302544,40.6991834 L21.7519248,38.3501601 C22.156337,37.6948554 23.0242406,37.4801866 23.68679,37.8719205 C24.3724537,38.2771952 24.5616796,39.2172875 24.1500227,39.8845805 Z M35.9351579,28.3707784 L32.7283219,26.4002932 C32.4309422,26.2175358 32.0211827,26.3154261 31.8385116,26.6128058 C31.6557542,26.9101854 31.7536445,27.3199449 32.0510242,27.5026161 L36.8288493,30.4383778 C37.497436,30.8492585 37.7071887,31.7274254 37.2963943,32.3960984 C36.8855136,33.0646852 36.0072603,33.2744379 35.3385873,32.8636434 L30.2143943,29.7149379 C29.9100286,29.5277819 29.5115675,29.6230849 29.324584,29.9274505 C29.1376005,30.2318162 29.2327309,30.6302773 29.5370966,30.8172608 L33.4854843,33.243389 C34.1460501,33.6492673 34.3595114,34.5395951 33.9530293,35.2011096 C33.5471509,35.8616754 32.6568231,36.0750505 31.9953086,35.6686546 L28.417093,33.4699598 C28.1126411,33.2828901 27.7142662,33.3781068 27.5272827,33.6824724 C27.3402992,33.9868381 27.4354297,34.3852992 27.7397953,34.5722827 L30.1421193,36.0484002 C30.8025988,36.4543648 31.0161464,37.3445201 30.6096643,38.0061208 C30.2037859,38.6666004 29.3134581,38.8801479 28.6519436,38.4736658 C28.6519436,38.4736658 26.5392371,37.1767697 26.5194865,37.1672825 C26.2240906,37.02463 25.8628881,37.1261427 25.6876342,37.4114478 C25.5006507,37.7158134 25.5957812,38.1142746 25.9001468,38.3012581 L26.7987543,38.8534114 C27.4673411,39.2642921 27.6770075,40.142459 27.2662131,40.811132 C26.8603347,41.4716978 25.9700069,41.6850729 25.3084924,41.278677 L24.94729,41.0566773 L25.2514831,40.5636031 C25.6403709,39.9333101 25.7610304,39.1570871 25.5824991,38.4339922 C25.4063827,37.7203845 24.9670405,37.1251077 24.3456309,36.7577817 C23.8607502,36.4712692 23.3183429,36.3551807 22.7901662,36.3908008 C22.8893503,35.9647406 22.8898678,35.5157387 22.7836114,35.0852799 C22.6074951,34.3716722 22.1681529,33.7763954 21.5467432,33.4090694 C21.0618626,33.1224707 20.5194552,33.0063822 19.9912786,33.0420022 C20.2580405,31.8959521 19.7669501,30.6628787 18.7478555,30.0603571 C18.2629749,29.7738446 17.7205675,29.6577561 17.1923909,29.6932899 C17.4591529,28.5472398 16.9680624,27.3141664 15.9489679,26.7116449 C14.6838106,25.9637971 13.0265745,26.3733841 12.2546638,27.6243106 L9.58876905,31.9449404 L6.8669862,30.4202659 L10.8979985,20.1187516 L13.0928122,20.5060869 C12.4685564,21.2814474 12.2930438,22.3730757 12.7329035,23.3391284 C13.1881151,24.3385586 14.1770232,24.9299543 15.2097448,24.9298681 C15.585868,24.9298681 15.967856,24.8513833 16.3319046,24.6856166 L20.1205628,22.9599866 C20.4414016,22.8138841 20.5873316,22.4239615 20.4411429,22.1031226 C20.2950405,21.78237 19.9051178,21.6362676 19.584279,21.7825425 L15.7955345,23.5080863 C15.0814955,23.8334099 14.2356712,23.5169697 13.9103475,22.8027583 C13.5851101,22.0885469 13.9014641,21.242895 14.6156755,20.9175713 L20.6783222,18.1563736 L27.8901239,18.7774383 C27.908667,18.779077 27.9272101,18.7798532 27.9456669,18.7798532 C28.1026365,18.7798532 28.2550349,18.7226714 28.373797,18.6179676 L28.9877032,18.0759052 L37.6284452,26.6013349 L35.9351579,28.3707784 Z" id="Shape"></path>
                    </g>
                </g>
            </g>
        </g>
    </g>
</svg>