<?xml version="1.0" encoding="UTF-8"?>
<svg width="36px" height="34px" viewBox="0 0 36 34" version="1.1" xmlns="http://www.w3.org/2000/svg" xmlns:xlink="http://www.w3.org/1999/xlink">
    <!-- Generator: Sketch 60.1 (88133) - https://sketch.com -->
    <title>Shape</title>
    <desc>Created with Sketch.</desc>
    <g id="Symbols" stroke="none" stroke-width="1" fill="none" fill-rule="evenodd">
        <g id="Menu" transform="translate(-35.000000, -127.000000)" fill="#7C7C7C" stroke="#FFFFFF" stroke-width="0.86">
            <g id="Group">
                <path d="M53.0434356,128.000519 C53.0017036,127.999397 52.9599407,128.000036 52.9182902,128.003018 C52.917439,128.003017 52.9165877,128.003017 52.9157364,128.003018 C52.9148851,128.003017 52.9140339,128.003017 52.9131826,128.003018 C52.91148,128.003014 52.9097775,128.003014 52.9080749,128.003018 C52.5404315,128.024725 52.1991867,128.197114 51.9682066,128.477817 C51.7492548,128.670711 43.6094914,135.841442 40.3475761,138.713603 L36.4323624,142.159737 C36.0851807,142.465956 35.9313343,142.930143 36.0287757,143.377444 C36.1262171,143.824744 36.4601426,144.187203 36.9047657,144.328284 C37.3493888,144.469366 37.8371607,144.367637 38.1843424,144.061418 L38.6159692,143.681568 L38.6159692,154.881949 C38.6159692,155.839097 38.6112754,156.574692 38.6874816,157.238482 C38.7636845,157.902222 38.9397913,158.59933 39.4919828,159.140163 C40.0441742,159.680997 40.7568004,159.85489 41.4355324,159.929842 C42.1143037,160.004796 42.8670092,159.999934 43.8465645,159.999934 L45.1542074,159.999934 C46.133632,159.999934 46.886442,160.004807 47.5652394,159.929842 C48.2440107,159.854891 48.9565715,159.68101 49.5087891,159.140163 C50.0610067,158.599317 50.2370939,157.902196 50.3132903,157.238482 C50.3894958,156.574743 50.3848027,155.839122 50.3848027,154.881949 L50.3848027,152.323002 C50.3848027,151.366698 50.3908126,150.666084 50.4384369,150.251407 C50.4622426,150.044043 50.491692,149.934008 50.5073942,149.884057 C50.5590749,149.868096 50.670928,149.840013 50.8828316,149.816586 C51.3066386,149.769784 52.0219716,149.764107 53.0000362,149.764107 C53.9781008,149.764107 54.6934338,149.769731 55.1172409,149.816586 C55.3291444,149.839987 55.4410002,149.868089 55.4926783,149.884057 C55.508387,149.934002 55.537856,150.044043 55.5616355,150.251407 C55.6092481,150.666135 55.6152698,151.366749 55.6152698,152.323002 L55.6152698,154.881949 C55.6152698,155.840274 55.610166,156.576867 55.6867822,157.241041 C55.7633826,157.90519 55.9410926,158.602401 56.4938463,159.142722 C57.0466,159.683044 57.7590693,159.855338 58.437396,159.929893 C59.1157488,160.004455 59.8675651,159.999934 60.8458127,159.999934 L62.1534557,159.999934 C63.1328802,159.999934 63.8856903,160.004858 64.5644877,159.929893 C65.243259,159.854942 65.9558198,159.681061 66.5080374,159.140215 C67.060255,158.599368 67.2363422,157.902247 67.3125385,157.238534 C67.3887427,156.574794 67.3840509,155.839174 67.3840509,154.882 L67.3840509,143.681619 L67.8156777,144.061469 C68.3523741,144.534843 69.1796466,144.492882 69.6634425,143.967747 C70.1472385,143.442613 70.1043541,142.633162 69.5676577,142.159788 L65.652444,138.713654 C62.3927517,135.843412 54.266797,128.685399 54.0369134,128.482858 C54.0360633,128.482024 54.035212,128.481191 54.0343596,128.480359 C53.7927805,128.18495 53.4299798,128.009287 53.0434147,128.000557 L53.0434356,128.000519 Z M53.0000179,131.016749 C53.5356546,131.488324 55.9998816,133.657454 58.3225169,135.702308 L63.9081137,140.620347 C64.4560292,141.105728 64.7688043,141.794161 64.7688043,142.517038 L64.7688043,154.881996 C64.7688043,155.8383 64.7627944,156.538914 64.71517,156.953591 C64.6913644,157.160955 64.6619149,157.27099 64.6462128,157.32094 C64.5945321,157.336902 64.4826789,157.364985 64.2707754,157.388412 C63.8469683,157.435214 63.1316353,157.440891 62.1535707,157.440891 L60.8459278,157.440891 C59.8685693,157.440891 59.1525302,157.435011 58.7287231,157.388412 C58.5167934,157.365119 58.4043362,157.336304 58.3532858,157.32094 C58.3369729,157.270373 58.3082715,157.16093 58.2843285,156.953591 C58.2364963,156.538914 58.2306943,155.838991 58.2306943,154.881996 L58.2306943,152.323049 C58.2306943,151.365901 58.2354044,150.630306 58.1591819,149.966515 C58.0829738,149.302776 57.9068722,148.605668 57.3546807,148.064834 C56.8024893,147.523988 56.0898762,147.350108 55.411131,147.275156 C54.7323597,147.200202 53.9796543,147.205184 53.000099,147.205184 C52.0205437,147.205184 51.2678644,147.200191 50.589067,147.275156 C49.9102957,147.350106 49.1977349,147.523988 48.6455173,148.064834 C48.0932997,148.60568 47.9172125,149.302801 47.8410161,149.966515 C47.7648106,150.630255 47.7695037,151.365875 47.7695037,152.323049 L47.7695037,154.881996 C47.7695037,155.8383 47.7634938,156.538914 47.7158694,156.953591 C47.6920638,157.160955 47.6626144,157.27099 47.6469122,157.32094 C47.5952315,157.336902 47.4833784,157.364985 47.2714748,157.388412 C46.8476678,157.435214 46.1323348,157.440891 45.1542702,157.440891 L43.8466272,157.440891 C42.8685103,157.440891 42.1532296,157.435266 41.7294226,157.388412 C41.517519,157.365011 41.4056633,157.336908 41.3539852,157.32094 C41.338283,157.270996 41.3088323,157.160955 41.285028,156.953591 C41.2374141,156.538862 41.2313937,155.838248 41.2313937,154.881996 L41.2313937,142.517038 C41.2313937,141.791756 41.545921,141.100917 42.0971971,140.615357 C43.6633611,139.236341 45.2423399,137.846449 47.6776941,135.702436 L53.0001931,131.016749 L53.0000179,131.016749 Z" id="Shape"></path>
            </g>
        </g>
    </g>
</svg>