<?xml version="1.0" encoding="UTF-8"?>
<svg width="26px" height="26px" viewBox="0 0 26 26" version="1.1" xmlns="http://www.w3.org/2000/svg" xmlns:xlink="http://www.w3.org/1999/xlink">
    <!-- Generator: Sketch 60.1 (88133) - https://sketch.com -->
    <title>149919</title>
    <desc>Created with Sketch.</desc>
    <g id="Page-1" stroke="none" stroke-width="1" fill="none" fill-rule="evenodd">
        <g id="4" transform="translate(-1732.000000, -170.000000)" fill="#FFFFFF" fill-rule="nonzero">
            <g id="149919" transform="translate(1732.000000, 170.000000)">
                <path d="M23.3426371,1.70078734 C20.9824294,-0.567376638 17.1417362,-0.566481545 14.7810628,1.70078734 L10.5002756,5.81463171 C10.1365578,6.16416527 10.1365578,6.73075872 10.5002756,7.08029228 C10.8639935,7.42982583 11.4535797,7.42982583 11.8172976,7.08029228 L16.0980848,2.9664479 C16.8855969,2.21009488 17.9380968,1.79298185 19.0613843,1.79298185 C20.1851375,1.79298185 21.2376373,2.21009488 22.0251494,2.96689545 C22.8126615,3.72369602 23.2467013,4.73515036 23.2467013,5.81507926 C23.2467013,6.89456062 22.8126615,7.90601496 22.0251494,8.66281553 L16.427806,14.0432156 C14.7931712,15.6132075 12.1344447,15.6132075 10.4998099,14.0432156 C10.136092,13.693682 9.54650582,13.693682 9.18278794,14.0432156 C8.81907006,14.3927491 8.81907006,14.9597901 9.18278794,15.3088761 C10.3628918,16.4429581 11.9132335,17.0099991 13.4635751,17.0099991 C15.0139168,17.0099991 16.5642584,16.4429581 17.7443623,15.3088761 L23.3426371,9.92892363 C24.4822244,8.83422571 25.1099987,7.37298747 25.1099987,5.81507926 C25.1099987,4.2567235 24.4822244,2.79593281 23.3426371,1.70078734 Z" id="Path"></path>
                <path d="M12.2518443,18.5415571 L8.7391883,22.0891815 C7.97550852,22.8604636 6.95486021,23.2855583 5.8651149,23.2855583 C4.77582121,23.2855583 3.75472128,22.8604636 2.9910415,22.0891815 C1.40632693,20.4886911 1.40632693,17.8843024 2.9910415,16.2838121 L8.10060568,11.1233824 C8.86428546,10.3525563 9.88493378,9.92746171 10.9746791,9.92746171 C12.0639728,9.92746171 13.0846211,10.3525563 13.8483009,11.1233824 C14.2010116,11.4796044 14.7727553,11.4796044 15.1254661,11.1233824 C15.4781769,10.7671604 15.4781769,10.189725 15.1254661,9.83350303 C12.8371365,7.52239314 9.11267333,7.52193703 6.82298883,9.83350303 L1.71342465,14.9943888 C0.608776075,16.1100341 0,17.5992336 0,19.1869529 C0,20.774216 0.608776075,22.2634155 1.71387627,23.3790608 C2.81852484,24.4951623 4.29304553,25.1099987 5.86466329,25.1099987 C7.43673266,25.1099987 8.91125335,24.4951623 10.0159019,23.3790608 L13.5285579,19.8314365 C13.8812687,19.4752145 13.8812687,18.8977791 13.5285579,18.5415571 C13.1758472,18.1853351 12.6045551,18.1853351 12.2518443,18.5415571 Z" id="Path"></path>
            </g>
        </g>
    </g>
</svg>