<?xml version="1.0" encoding="UTF-8"?>
<svg width="34px" height="25px" viewBox="0 0 34 25" version="1.1" xmlns="http://www.w3.org/2000/svg" xmlns:xlink="http://www.w3.org/1999/xlink">
    <!-- Generator: Sketch 60.1 (88133) - https://sketch.com -->
    <title>131155</title>
    <desc>Created with Sketch.</desc>
    <g id="Page-1" stroke="none" stroke-width="1" fill="none" fill-rule="evenodd">
        <g id="3" transform="translate(-36.000000, -577.000000)" fill="#7E7E7E" fill-rule="nonzero">
            <g id="Menu">
                <g id="131155" transform="translate(36.000000, 577.000000)">
                    <g id="Group" transform="translate(5.400000, 11.880001)">
                        <path d="M21.7177217,7.03080056 C21.5848817,7.03080056 21.4520417,6.98220055 21.3483617,6.88392055 L15.1340412,1.05408008 C14.9169612,0.851040068 14.9061612,0.50868004 15.1102812,0.291600023 C15.3144012,0.0723600058 15.6546012,0.062640005 15.8738413,0.267840021 L22.0881618,6.09768048 C22.3052418,6.3007205 22.3160418,6.64308053 22.1119218,6.86016055 C22.0050017,6.97356055 21.8624417,7.03080056 21.7177217,7.03080056 Z" id="Path"></path>
                        <path d="M0.974160077,7.03080056 C0.830520066,7.03080056 0.686880055,6.97356055 0.579960046,6.86016055 C0.37584003,6.64308053 0.386640031,6.3007205 0.603720048,6.09768048 L6.82020054,0.267840021 C7.03836056,0.0648000051 7.38072059,0.0734400058 7.5837606,0.291600023 C7.78788062,0.50868004 7.77708062,0.851040068 7.5600006,1.05408008 L1.34352011,6.88392055 C1.2398401,6.98220055 1.10700009,7.03080056 0.974160077,7.03080056 Z" id="Path"></path>
                    </g>
                    <path d="M30.7929624,24.3313219 L2.70000021,24.3313219 C1.2117601,24.3313219 0,23.1206418 0,21.6313217 L0,3.22056026 C0,1.73124014 1.2117601,0.520560041 2.70000021,0.520560041 L30.7929624,0.520560041 C32.2812026,0.520560041 33.4929627,1.73124014 33.4929627,3.22056026 L33.4929627,21.6313217 C33.4929627,23.1206418 32.2812026,24.3313219 30.7929624,24.3313219 Z M2.70000021,1.60056013 C1.80684014,1.60056013 1.08000009,2.32740018 1.08000009,3.22056026 L1.08000009,21.6313217 C1.08000009,22.5244818 1.80684014,23.2513218 2.70000021,23.2513218 L30.7929624,23.2513218 C31.6861225,23.2513218 32.4129626,22.5244818 32.4129626,21.6313217 L32.4129626,3.22056026 C32.4129626,2.32740018 31.6861225,1.60056013 30.7929624,1.60056013 L2.70000021,1.60056013 Z" id="Shape"></path>
                    <path d="M16.7464813,15.1394412 C16.0282813,15.1394412 15.3100812,14.9007612 14.7636012,14.4244811 L0.896400071,2.32740018 C0.671760053,2.13192017 0.648000051,1.79064014 0.843480067,1.56492012 C1.04112008,1.34028011 1.38132011,1.3197601 1.60596013,1.51308012 L15.4731612,13.6090811 C16.1632813,14.2106411 17.3296814,14.2106411 18.0187214,13.6090811 L31.8686425,1.53252012 C32.0922026,1.33704011 32.4324026,1.35864011 32.6311226,1.58436013 C32.8266026,1.81008014 32.8039226,2.15028017 32.5792826,2.34684019 L18.7293615,14.4234011 C18.1818014,14.9007612 17.4646814,15.1394412 16.7464813,15.1394412 Z" id="Path"></path>
                </g>
            </g>
        </g>
    </g>
</svg>