<?xml version="1.0" encoding="UTF-8"?>
<svg width="32px" height="23px" viewBox="0 0 32 23" version="1.1" xmlns="http://www.w3.org/2000/svg" xmlns:xlink="http://www.w3.org/1999/xlink">
    <!-- Generator: Sketch 61.1 (89650) - https://sketch.com -->
    <title>131155</title>
    <desc>Created with Sketch.</desc>
    <g id="CRM" stroke="none" stroke-width="1" fill="none" fill-rule="evenodd">
        <g id="detail" transform="translate(-270.000000, -656.000000)" fill="#C9002A" fill-rule="nonzero">
            <g id="131155" transform="translate(270.000000, 656.000000)">
                <g id="Group" transform="translate(5.022000, 11.048401)">
                    <path d="M20.1974814,6.53864457 C20.0739401,6.53864457 19.9503989,6.49344657 19.8539765,6.40204616 L14.0746584,0.980294485 C13.872774,0.791467269 13.86273,0.473072441 14.0525616,0.271188024 C14.2423932,0.0672948059 14.5587793,0.0582552051 14.7626725,0.249091222 L20.5419906,5.67084289 C20.743875,5.85967011 20.753919,6.17806494 20.5640874,6.37994936 C20.4646518,6.48541137 20.332071,6.53864457 20.1974814,6.53864457 Z" id="Path"></path>
                    <path d="M0.905968879,6.53864457 C0.772383667,6.53864457 0.638798456,6.48541137 0.539362847,6.37994936 C0.34953123,6.17806494 0.359575231,5.85967011 0.561459649,5.67084289 L6.34278655,0.249091222 C6.54567537,0.0602640053 6.8640702,0.068299206 7.05289741,0.271188024 C7.24272903,0.473072441 7.23268503,0.791467269 7.03080061,0.980294485 L1.24947371,6.40204616 C1.1530513,6.49344657 1.02951009,6.53864457 0.905968879,6.53864457 Z" id="Path"></path>
                </g>
                <path d="M28.6374553,22.6281296 L2.51100022,22.6281296 C1.1269369,22.6281296 0,21.5021971 0,20.1171294 L0,2.99512106 C0,1.61005334 1.1269369,0.484120842 2.51100022,0.484120842 L28.6374553,0.484120842 C30.0215186,0.484120842 31.1484555,1.61005334 31.1484555,2.99512106 L31.1484555,20.1171294 C31.1484555,21.5021971 30.0215186,22.6281296 28.6374553,22.6281296 Z M2.51100022,1.48852093 C1.68036135,1.48852093 1.00440009,2.16448219 1.00440009,2.99512106 L1.00440009,20.1171294 C1.00440009,20.9477682 1.68036135,21.6237295 2.51100022,21.6237295 L28.6374553,21.6237295 C29.4680942,21.6237295 30.1440554,20.9477682 30.1440554,20.1171294 L30.1440554,2.99512106 C30.1440554,2.16448219 29.4680942,1.48852093 28.6374553,1.48852093 L2.51100022,1.48852093 Z" id="Shape"></path>
                <path d="M15.5742278,14.0796804 C14.9063017,14.0796804 14.2383756,13.857708 13.7301492,13.4147676 L0.833652073,2.16448219 C0.624736854,1.98268577 0.602640053,1.66529535 0.784436468,1.45537573 C0.968241684,1.24646051 1.28462771,1.22737691 1.49354293,1.40716452 L14.3900401,12.6564455 C15.0318517,13.2158964 16.1166038,13.2158964 16.7574111,12.6564455 L29.6378378,1.42524372 C29.8457486,1.24344731 30.1621346,1.26353531 30.3469442,1.47345493 C30.5287407,1.68337455 30.5076483,1.99976057 30.298733,2.18256139 L17.4183063,13.4137632 C16.9090755,13.857708 16.2421538,14.0796804 15.5742278,14.0796804 Z" id="Path"></path>
            </g>
        </g>
    </g>
</svg>