<?xml version="1.0" encoding="UTF-8"?>
<svg width="46px" height="49px" viewBox="0 0 46 49" version="1.1" xmlns="http://www.w3.org/2000/svg" xmlns:xlink="http://www.w3.org/1999/xlink">
    <!-- Generator: Sketch 61 (89581) - https://sketch.com -->
    <title>Group 33</title>
    <desc>Created with Sketch.</desc>
    <g id="CRM" stroke="none" stroke-width="1" fill="none" fill-rule="evenodd">
        <g id="Keuze" transform="translate(-1245.000000, -431.000000)">
            <g id="Group" transform="translate(323.000000, 216.000000)">
                <g id="Group-33" transform="translate(922.000000, 215.000000)">
                    <path d="M29.2701,47 L43.44,47 L43.44,14.1 L29.2701,14.1 L29.2701,47 Z M27.29,13.12 L27.29,47.01 L1.98,47.01 L1.98,1.98 L27.29,1.98 L27.29,13.12 Z M44.43,12.13 L29.27,12.13 L29.27,0.99 C29.27,0.44 28.83,0 28.28,0 L0.99,0 C0.44,0 0,0.44 0,0.99 L0,47.99 C0,48.54 0.44,48.98 0.99,48.98 L28.28,48.98 L44.43,48.98 C44.98,48.98 45.42,48.54 45.42,47.99 L45.42,13.12 C45.42,12.57 44.98,12.13 44.43,12.13 L44.43,12.13 Z" id="Fill-1" fill="#08009D"></path>
                    <path d="M33.13,19.12998 L39.58,19.12998 C40.13,19.12998 40.57,18.68998 40.57,18.13998 C40.57,17.58998 40.13,17.14998 39.58,17.14998 L33.13,17.14998 C32.58,17.14998 32.14,17.58998 32.14,18.13998 C32.14,18.67998 32.58,19.12998 33.13,19.12998" id="Fill-3" fill="#C9002A"></path>
                    <path d="M33.13,24.1 L39.58,24.1 C40.13,24.1 40.57,23.66 40.57,23.11 C40.57,22.56 40.13,22.12 39.58,22.12 L33.13,22.12 C32.58,22.12 32.14,22.56 32.14,23.11 C32.14,23.66 32.58,24.1 33.13,24.1" id="Fill-4" fill="#C9002A"></path>
                    <path d="M33.13,29.05996 L39.58,29.05996 C40.13,29.05996 40.57,28.62006 40.57,28.07006 C40.57,27.52006 40.13,27.07996 39.58,27.07996 L33.13,27.07996 C32.58,27.07996 32.14,27.52006 32.14,28.07006 C32.14,28.62006 32.58,29.05996 33.13,29.05996" id="Fill-5" fill="#C9002A"></path>
                    <path d="M33.13,34.02998 L39.58,34.02998 C40.13,34.02998 40.57,33.59008 40.57,33.04008 C40.57,32.49008 40.13,32.04998 39.58,32.04998 L33.13,32.04998 C32.58,32.04998 32.14,32.49008 32.14,33.04008 C32.14,33.59008 32.58,34.02998 33.13,34.02998" id="Fill-6" fill="#C9002A"></path>
                    <path d="M33.13,38.99004 L39.58,38.99004 C40.13,38.99004 40.57,38.55004 40.57,38.00004 C40.57,37.45004 40.13,37.00994 39.58,37.00994 L33.13,37.00994 C32.58,37.00994 32.14,37.45004 32.14,38.00004 C32.14,38.54004 32.58,38.99004 33.13,38.99004" id="Fill-7" fill="#C9002A"></path>
                    <path d="M33.13,43.95996 L39.58,43.95996 C40.13,43.95996 40.57,43.52006 40.57,42.97006 C40.57,42.42006 40.13,41.97996 39.58,41.97996 L33.13,41.97996 C32.58,41.97996 32.14,42.42006 32.14,42.97006 C32.14,43.52006 32.58,43.95996 33.13,43.95996" id="Fill-8" fill="#C9002A"></path>
                    <path d="M6.57004,9.7 C7.12004,9.7 7.55994,9.26 7.55994,8.71 L7.55994,6.52 C7.55994,5.97 7.12004,5.53 6.57004,5.53 C6.02004,5.53 5.58004,5.97 5.58004,6.52 L5.58004,8.71 C5.58004,9.26 6.02004,9.7 6.57004,9.7" id="Fill-9" fill="#08009D"></path>
                    <path d="M11.95002,9.7 C12.50002,9.7 12.93992,9.26 12.93992,8.71 L12.93992,6.52 C12.93992,5.97 12.50002,5.53 11.95002,5.53 C11.40002,5.53 10.96002,5.97 10.96002,6.52 L10.96002,8.71 C10.96002,9.26 11.40002,9.7 11.95002,9.7" id="Fill-10" fill="#08009D"></path>
                    <path d="M17.32004,9.7 C17.87004,9.7 18.30994,9.26 18.30994,8.71 L18.30994,6.52 C18.30994,5.97 17.87004,5.53 17.32004,5.53 C16.77004,5.53 16.33004,5.97 16.33004,6.52 L16.33004,8.71 C16.33004,9.26 16.78004,9.7 17.32004,9.7" id="Fill-11" fill="#08009D"></path>
                    <path d="M22.70002,9.7 C23.25002,9.7 23.68992,9.26 23.68992,8.71 L23.68992,6.52 C23.68992,5.97 23.25002,5.53 22.70002,5.53 C22.15002,5.53 21.71002,5.97 21.71002,6.52 L21.71002,8.71 C21.71002,9.26 22.15002,9.7 22.70002,9.7" id="Fill-12" fill="#08009D"></path>
                    <path d="M6.57004,16.47998 C7.12004,16.47998 7.55994,16.03998 7.55994,15.48998 L7.55994,13.28998 C7.55994,12.73998 7.12004,12.29998 6.57004,12.29998 C6.02004,12.29998 5.58004,12.73998 5.58004,13.28998 L5.58004,15.48998 C5.58004,16.02998 6.02004,16.47998 6.57004,16.47998" id="Fill-13" fill="#08009D"></path>
                    <path d="M11.95002,16.47998 C12.50002,16.47998 12.93992,16.03998 12.93992,15.48998 L12.93992,13.28998 C12.93992,12.73998 12.50002,12.29998 11.95002,12.29998 C11.40002,12.29998 10.96002,12.73998 10.96002,13.28998 L10.96002,15.48998 C10.96002,16.02998 11.40002,16.47998 11.95002,16.47998" id="Fill-14" fill="#08009D"></path>
                    <path d="M17.32004,16.47998 C17.87004,16.47998 18.30994,16.03998 18.30994,15.48998 L18.30994,13.28998 C18.30994,12.73998 17.87004,12.29998 17.32004,12.29998 C16.77004,12.29998 16.33004,12.73998 16.33004,13.28998 L16.33004,15.48998 C16.33004,16.02998 16.78004,16.47998 17.32004,16.47998" id="Fill-15" fill="#08009D"></path>
                    <path d="M22.70002,16.47998 C23.25002,16.47998 23.68992,16.03998 23.68992,15.48998 L23.68992,13.28998 C23.68992,12.73998 23.25002,12.29998 22.70002,12.29998 C22.15002,12.29998 21.71002,12.73998 21.71002,13.28998 L21.71002,15.48998 C21.71002,16.02998 22.15002,16.47998 22.70002,16.47998" id="Fill-16" fill="#08009D"></path>
                    <path d="M6.57004,23.25 C7.12004,23.25 7.55994,22.81 7.55994,22.26 L7.55994,20.07 C7.55994,19.52 7.12004,19.08 6.57004,19.08 C6.02004,19.08 5.58004,19.52 5.58004,20.07 L5.58004,22.26 C5.58004,22.81 6.02004,23.25 6.57004,23.25" id="Fill-17" fill="#08009D"></path>
                    <path d="M11.95002,23.25 C12.50002,23.25 12.93992,22.81 12.93992,22.26 L12.93992,20.07 C12.93992,19.52 12.50002,19.08 11.95002,19.08 C11.40002,19.08 10.96002,19.52 10.96002,20.07 L10.96002,22.26 C10.96002,22.81 11.40002,23.25 11.95002,23.25" id="Fill-18" fill="#08009D"></path>
                    <path d="M17.32004,23.25 C17.87004,23.25 18.30994,22.81 18.30994,22.26 L18.30994,20.07 C18.30994,19.52 17.87004,19.08 17.32004,19.08 C16.77004,19.08 16.33004,19.52 16.33004,20.07 L16.33004,22.26 C16.33004,22.81 16.78004,23.25 17.32004,23.25" id="Fill-19" fill="#08009D"></path>
                    <path d="M22.70002,23.25 C23.25002,23.25 23.68992,22.81 23.68992,22.26 L23.68992,20.07 C23.68992,19.52 23.25002,19.08 22.70002,19.08 C22.15002,19.08 21.71002,19.52 21.71002,20.07 L21.71002,22.26 C21.71002,22.81 22.15002,23.25 22.70002,23.25" id="Fill-20" fill="#08009D"></path>
                    <path d="M6.57004,30.02998 C7.12004,30.02998 7.55994,29.59008 7.55994,29.04008 L7.55994,26.84998 C7.55994,26.29998 7.12004,25.85998 6.57004,25.85998 C6.02004,25.85998 5.58004,26.29998 5.58004,26.84998 L5.58004,29.04008 C5.58004,29.57998 6.02004,30.02998 6.57004,30.02998" id="Fill-21" fill="#08009D"></path>
                    <path d="M11.95002,30.02998 C12.50002,30.02998 12.93992,29.59008 12.93992,29.04008 L12.93992,26.84998 C12.93992,26.29998 12.50002,25.85998 11.95002,25.85998 C11.40002,25.85998 10.96002,26.29998 10.96002,26.84998 L10.96002,29.04008 C10.96002,29.57998 11.40002,30.02998 11.95002,30.02998" id="Fill-22" fill="#08009D"></path>
                    <path d="M17.32004,30.02998 C17.87004,30.02998 18.30994,29.59008 18.30994,29.04008 L18.30994,26.84998 C18.30994,26.29998 17.87004,25.85998 17.32004,25.85998 C16.77004,25.85998 16.33004,26.29998 16.33004,26.84998 L16.33004,29.04008 C16.33004,29.57998 16.78004,30.02998 17.32004,30.02998" id="Fill-23" fill="#08009D"></path>
                    <path d="M22.70002,30.02998 C23.25002,30.02998 23.68992,29.59008 23.68992,29.04008 L23.68992,26.84998 C23.68992,26.29998 23.25002,25.85998 22.70002,25.85998 C22.15002,25.85998 21.71002,26.29998 21.71002,26.84998 L21.71002,29.04008 C21.71002,29.57998 22.15002,30.02998 22.70002,30.02998" id="Fill-24" fill="#08009D"></path>
                    <path d="M6.57004,36.8 C7.12004,36.8 7.55994,36.36 7.55994,35.81 L7.55994,33.62 C7.55994,33.07 7.12004,32.63 6.57004,32.63 C6.02004,32.63 5.58004,33.07 5.58004,33.62 L5.58004,35.81 C5.58004,36.36 6.02004,36.8 6.57004,36.8" id="Fill-25" fill="#08009D"></path>
                    <path d="M11.95002,36.8 C12.50002,36.8 12.93992,36.36 12.93992,35.81 L12.93992,33.62 C12.93992,33.07 12.50002,32.63 11.95002,32.63 C11.40002,32.63 10.96002,33.07 10.96002,33.62 L10.96002,35.81 C10.96002,36.36 11.40002,36.8 11.95002,36.8" id="Fill-26" fill="#08009D"></path>
                    <path d="M17.32004,36.8 C17.87004,36.8 18.30994,36.36 18.30994,35.81 L18.30994,33.62 C18.30994,33.07 17.87004,32.63 17.32004,32.63 C16.77004,32.63 16.33004,33.07 16.33004,33.62 L16.33004,35.81 C16.33004,36.36 16.78004,36.8 17.32004,36.8" id="Fill-27" fill="#08009D"></path>
                    <path d="M22.70002,36.8 C23.25002,36.8 23.68992,36.36 23.68992,35.81 L23.68992,33.62 C23.68992,33.07 23.25002,32.63 22.70002,32.63 C22.15002,32.63 21.71002,33.07 21.71002,33.62 L21.71002,35.81 C21.71002,36.36 22.15002,36.8 22.70002,36.8" id="Fill-28" fill="#08009D"></path>
                    <path d="M6.57004,43.57998 C7.12004,43.57998 7.55994,43.14008 7.55994,42.59008 L7.55994,40.39008 C7.55994,39.84008 7.12004,39.39998 6.57004,39.39998 C6.02004,39.39998 5.58004,39.84008 5.58004,40.39008 L5.58004,42.59008 C5.58004,43.12998 6.02004,43.57998 6.57004,43.57998" id="Fill-29" fill="#08009D"></path>
                    <path d="M11.95002,43.57998 C12.50002,43.57998 12.93992,43.14008 12.93992,42.59008 L12.93992,40.39008 C12.93992,39.84008 12.50002,39.39998 11.95002,39.39998 C11.40002,39.39998 10.96002,39.84008 10.96002,40.39008 L10.96002,42.59008 C10.96002,43.12998 11.40002,43.57998 11.95002,43.57998" id="Fill-30" fill="#08009D"></path>
                    <path d="M17.32004,43.57998 C17.87004,43.57998 18.30994,43.14008 18.30994,42.59008 L18.30994,40.39008 C18.30994,39.84008 17.87004,39.39998 17.32004,39.39998 C16.77004,39.39998 16.33004,39.84008 16.33004,40.39008 L16.33004,42.59008 C16.33004,43.12998 16.78004,43.57998 17.32004,43.57998" id="Fill-31" fill="#08009D"></path>
                    <path d="M22.70002,43.57998 C23.25002,43.57998 23.68992,43.14008 23.68992,42.59008 L23.68992,40.39008 C23.68992,39.84008 23.25002,39.39998 22.70002,39.39998 C22.15002,39.39998 21.71002,39.84008 21.71002,40.39008 L21.71002,42.59008 C21.71002,43.12998 22.15002,43.57998 22.70002,43.57998" id="Fill-32" fill="#08009D"></path>
                </g>
            </g>
        </g>
    </g>
</svg>