<?xml version="1.0" encoding="UTF-8"?>
<svg width="5px" height="20px" viewBox="0 0 5 20" version="1.1" xmlns="http://www.w3.org/2000/svg" xmlns:xlink="http://www.w3.org/1999/xlink">
    <!-- Generator: Sketch 60.1 (88133) - https://sketch.com -->
    <title>Shape</title>
    <desc>Created with Sketch.</desc>
    <g id="Page-1" stroke="none" stroke-width="1" fill="none" fill-rule="evenodd">
        <g id="3" transform="translate(-678.000000, -394.000000)" fill="#464646" fill-rule="nonzero">
            <g id="61140" transform="translate(678.000000, 394.000000)">
                <path d="M2.47033795,4.94067591 C3.82902383,4.94067591 4.94067591,3.82902383 4.94067591,2.47033795 C4.94067591,1.11165208 3.82902383,0 2.47033795,0 C1.11165208,0 0,1.11165208 0,2.47033795 C0,3.82902383 1.11165208,4.94067591 2.47033795,4.94067591 Z M2.47033795,7.41101386 C1.11165208,7.41101386 0,8.52266594 0,9.88135182 C0,11.2400377 1.11165208,12.3516898 2.47033795,12.3516898 C3.82902383,12.3516898 4.94067591,11.2400377 4.94067591,9.88135182 C4.94067591,8.52266594 3.82902383,7.41101386 2.47033795,7.41101386 Z M2.47033795,14.8220277 C1.11165208,14.8220277 0,15.9336798 0,17.2923657 C0,18.6510516 1.11165208,19.7627036 2.47033795,19.7627036 C3.82902383,19.7627036 4.94067591,18.6510516 4.94067591,17.2923657 C4.94067591,15.9336798 3.82902383,14.8220277 2.47033795,14.8220277 Z" id="Shape"></path>
            </g>
        </g>
    </g>
</svg>