<svg xmlns="http://www.w3.org/2000/svg" width="54" height="54" viewBox="0 0 54 54">
    <g fill="none" fill-rule="evenodd">
        <rect width="54" height="54" fill="#C9002A" rx="27"/>
        <g fill="#FFF" fill-rule="nonzero">
            <path d="M37.915 16.873H41.8v1.232h-3.885V22h-1.23v-3.895H32.8v-1.232h3.885V13h1.23zM32.666 30.594a11.476 11.476 0 0 0-4.378-2.746 6.658 6.658 0 0 0 2.892-5.488 6.668 6.668 0 0 0-6.66-6.66 6.668 6.668 0 0 0-6.66 6.66 6.658 6.658 0 0 0 2.892 5.488 11.476 11.476 0 0 0-4.378 2.746A11.445 11.445 0 0 0 13 38.74h1.8c0-5.36 4.36-9.72 9.72-9.72s9.72 4.36 9.72 9.72h1.8c0-3.077-1.198-5.97-3.374-8.146zM24.52 27.22c-2.68 0-4.86-2.18-4.86-4.86s2.18-4.86 4.86-4.86 4.86 2.18 4.86 4.86-2.18 4.86-4.86 4.86z"/>
        </g>
    </g>
</svg>
