<?xml version="1.0" encoding="UTF-8"?>
<svg width="29px" height="29px" viewBox="0 0 29 29" version="1.1" xmlns="http://www.w3.org/2000/svg" xmlns:xlink="http://www.w3.org/1999/xlink">
    <!-- Generator: Sketch 61.1 (89650) - https://sketch.com -->
    <title>1034131</title>
    <desc>Created with Sketch.</desc>
    <g id="CRM" stroke="none" stroke-width="1" fill="none" fill-rule="evenodd">
        <g id="detail" transform="translate(-650.000000, -652.000000)" fill="#C9002A" fill-rule="nonzero">
            <g id="1034131" transform="translate(650.000000, 652.000000)">
                <path d="M27.9237841,22.1221841 L22.1196081,18.2514641 C21.3830401,17.7642081 20.3957041,17.9245361 19.8511601,18.6198881 L18.1604641,20.7936961 C17.9431841,21.0801921 17.5482161,21.1632961 17.2338881,20.9886881 L16.9122801,20.8113921 C15.8461521,20.2302801 14.5196241,19.5068161 11.8469121,16.8331521 C9.17420004,14.1594881 8.44928004,12.8319521 7.86816803,11.7677841 L7.69182403,11.446176 C7.51480803,11.131904 7.59634403,10.735256 7.88295203,10.51624 L10.055304,8.82604804 C10.750376,8.28144804 10.910928,7.29439203 10.424232,6.55760003 L6.55351203,0.753424003 C6.05472003,0.00313600001 5.05400002,-0.222096001 4.28181602,0.242088001 L1.85472001,1.70004801 C1.092112,2.14838401 0.532616002,2.87448001 0.293552001,3.72618402 C-0.580440002,6.91068003 0.0770560003,12.4066321 8.17308803,20.5036161 C14.6133121,26.9433361 19.4077521,28.6752138 22.7031281,28.6752138 C23.4615361,28.6783841 24.2169761,28.5797121 24.9491201,28.3817521 C25.8009921,28.1429681 26.5272001,27.5834161 26.9752561,26.8205841 L28.4346721,24.3949441 C28.8995281,23.6225921 28.6744081,22.6212561 27.9237841,22.1221841 Z M27.6112481,23.9046081 L26.1551921,26.3317041 C25.8334721,26.8822961 25.3111601,27.2871201 24.6976801,27.4613921 C21.7578481,28.2685201 16.6217521,27.5999921 8.84923204,19.8274721 C1.076712,12.0549521 0.408240002,6.91930403 1.21536801,3.97902402 C1.38986401,3.36481601 1.79519201,2.84183201 2.34645601,2.51960801 L4.77355202,1.063552 C5.10860002,0.861952004 5.54293602,0.959672004 5.75937602,1.28525601 L7.86200803,4.44203202 L9.62679204,7.08892803 C9.83813604,7.40852003 9.76869604,7.83686403 9.46719204,8.07335203 L7.29433603,9.76354404 C6.63308803,10.269168 6.44425603,11.18404 6.85137603,11.9101361 L7.02391203,12.2236241 C7.63464803,13.3437361 8.39395204,14.7371841 11.166064,17.5088481 C13.9381761,20.2804561 15.3311761,21.0398161 16.4507841,21.6504961 L16.7647201,21.8234801 C17.4907601,22.2305441 18.4056881,22.0417681 18.9113121,21.3805201 L20.6015041,19.2076641 C20.8380481,18.9063281 21.2662241,18.8369441 21.5859281,19.0480641 L27.3896001,22.9187841 C27.7154081,23.1350561 27.8131281,23.5696161 27.6112481,23.9046081 Z" id="Shape"></path>
                <path d="M16.2490161,4.78184002 C20.7335521,4.78682402 24.3677281,8.42105604 24.3727681,12.9055921 C24.3727681,13.1695201 24.5866881,13.3834401 24.8506161,13.3834401 C25.1145441,13.3834401 25.3284641,13.1695201 25.3284641,12.9055921 C25.3229201,7.89342403 21.2611841,3.83163202 16.2490161,3.82614402 C15.9850881,3.82614402 15.7711681,4.04006402 15.7711681,4.30399202 C15.7711681,4.56792002 15.9850881,4.78184002 16.2490161,4.78184002 Z" id="Path"></path>
                <path d="M16.2490161,7.64904003 C19.1507121,7.65245603 21.5021521,10.003896 21.5055681,12.9055921 C21.5055681,13.1695201 21.7195441,13.3834401 21.9834161,13.3834401 C22.2473441,13.3834401 22.4612641,13.1695201 22.4612641,12.9055921 C22.4572881,9.47626404 19.6782881,6.69726403 16.2490161,6.69334403 C15.9850881,6.69334403 15.7711681,6.90726403 15.7711681,7.17119203 C15.7711681,7.43512003 15.9850881,7.64904003 16.2490161,7.64904003 Z" id="Path"></path>
                <path d="M16.2490161,10.51624 C17.5679281,10.517808 18.6367441,11.586624 18.6383681,12.9055921 C18.6383681,13.1695201 18.8523441,13.3834401 19.1162161,13.3834401 C19.3800881,13.3834401 19.5940641,13.1695201 19.5940641,12.9055921 C19.5919361,11.059048 18.0955601,9.56261604 16.2490161,9.56054404 C15.9850881,9.56054404 15.7711681,9.77446404 15.7711681,10.038392 C15.7711681,10.30232 15.9850881,10.51624 16.2490161,10.51624 Z" id="Path"></path>
            </g>
        </g>
    </g>
</svg>