<?xml version="1.0" encoding="UTF-8"?>
<svg width="24px" height="24px" viewBox="0 0 24 24" version="1.1" xmlns="http://www.w3.org/2000/svg" xmlns:xlink="http://www.w3.org/1999/xlink">
    <!-- Generator: Sketch 60.1 (88133) - https://sketch.com -->
    <title>magnifying-glass</title>
    <desc>Created with Sketch.</desc>
    <defs>
        <polygon id="path-1" points="0.0036000002 0 23.5200013 0 23.5200013 23.5200013 0.0036000002 23.5200013"></polygon>
    </defs>
    <g id="Page-1" stroke="none" stroke-width="1" fill="none" fill-rule="evenodd">
        <g id="3" transform="translate(-135.000000, -40.000000)">
            <g id="Menu">
                <g id="Group">
                    <g id="magnifying-glass" transform="translate(135.000000, 40.000000)">
                        <mask id="mask-2" fill="white">
                            <use xlink:href="#path-1"></use>
                        </mask>
                        <g id="Clip-2"></g>
                        <path d="M23.2319413,21.8496012 L17.577661,16.1953209 C18.979201,14.4864608 19.8238811,12.2976607 19.8238811,9.91194054 C19.8238811,4.44000024 15.3838808,0 9.91194054,0 C4.43532024,0 0,4.44000024 0,9.91194054 C0,15.3838808 4.43532024,19.8238811 9.91194054,19.8238811 C12.2976607,19.8238811 14.4815408,18.983881 16.1904009,17.582341 L21.8446812,23.2319413 C22.2288012,23.6161213 22.8480612,23.6161213 23.2319413,23.2319413 C23.6161213,22.8527412 23.6161213,22.2288012 23.2319413,21.8496012 Z M9.91194054,17.851201 C5.5296003,17.851201 1.96806011,14.2896008 1.96806011,9.91194054 C1.96806011,5.5342803 5.5296003,1.96806011 9.91194054,1.96806011 C14.2896008,1.96806011 17.856121,5.5342803 17.856121,9.91194054 C17.856121,14.2896008 14.2896008,17.851201 9.91194054,17.851201 Z" id="Fill-1" fill="#C5C5C5" mask="url(#mask-2)"></path>
                    </g>
                </g>
            </g>
        </g>
    </g>
</svg>