<?xml version="1.0" encoding="UTF-8"?>
<svg width="36px" height="36px" viewBox="0 0 36 36" version="1.1" xmlns="http://www.w3.org/2000/svg" xmlns:xlink="http://www.w3.org/1999/xlink">
    <!-- Generator: Sketch 60.1 (88133) - https://sketch.com -->
    <title>Shape</title>
    <desc>Created with Sketch.</desc>
    <g id="-" stroke="none" stroke-width="1" fill="none" fill-rule="evenodd">
        <g id="3" transform="translate(-33.000000, -1020.000000)" fill="#7D7D7D" fill-rule="nonzero" stroke="#FFFFFF" stroke-width="0.5">
            <g id="Menu">
                <g id="Group">
                    <path d="M64.1923503,1047.79372 C64.0141898,1047.7449 63.6960787,1047.6788 63.392827,1047.57102 C61.943132,1047.05618 60.4079201,1048.13528 60.4470396,1049.66524 C60.4540144,1049.93889 60.524672,1050.22193 60.6203479,1050.48041 C61.0403516,1051.61393 60.6579512,1052.70274 59.6008156,1053.29975 C58.3759819,1053.99135 57.0838262,1054.52302 55.7296556,1054.90324 C54.5798766,1055.226 53.521528,1054.71722 53.0281374,1053.60704 C52.479555,1052.37255 51.0618532,1051.8903 49.9085868,1052.54977 C49.4653844,1052.80325 49.1647103,1053.17937 48.9609251,1053.64691 C48.5619975,1054.56153 47.6899971,1055.10502 46.726263,1054.98298 C46.2588005,1054.92371 45.8007388,1054.76028 45.3490453,1054.61141 C44.3330004,1054.27652 43.361685,1053.83581 42.4282762,1053.31248 C41.3480935,1052.70683 40.9650866,1051.62303 41.4008593,1050.46146 C41.7364073,1049.56731 41.5838717,1048.7479 40.904133,1048.0757 C40.2375856,1047.41653 39.4269937,1047.27463 38.5519609,1047.59921 C37.3700372,1048.0378 36.3001651,1047.6597 35.6850189,1046.56468 C35.0034606,1045.35156 34.4811095,1044.0728 34.1009835,1042.73492 C33.7778687,1041.59745 34.2814182,1040.51562 35.3673627,1040.03944 C36.0589283,1039.73623 36.51699,1039.23307 36.6862045,1038.49522 C36.9291092,1037.43583 36.4107003,1036.4254 35.4046627,1035.98393 C34.7405414,1035.69256 34.2865735,1035.22107 34.0836981,1034.51901 C33.971495,1034.13091 33.973921,1033.74205 34.0800591,1033.35319 C34.4566978,1031.97391 34.9973956,1030.6618 35.6969973,1029.41518 C36.2945549,1028.35048 37.3894453,1027.95828 38.5325527,1028.39656 C39.882023,1028.91398 41.2824395,1028.13626 41.5362612,1026.72121 C41.6085867,1026.31795 41.5523335,1025.92318 41.4032853,1025.53948 C40.9550793,1024.38563 41.3480935,1023.29865 42.4294892,1022.69042 C43.6623591,1021.99684 44.9625509,1021.46533 46.3246062,1021.08632 C47.4178287,1020.78206 48.4952821,1021.30008 48.9618349,1022.3572 C49.2925309,1023.10657 49.8420231,1023.58381 50.656254,1023.7107 C51.6939814,1023.87231 52.6026753,1023.36172 53.0272277,1022.3945 C53.3376059,1021.68742 53.8479785,1021.20336 54.6100502,1021.06495 C54.9563636,1021.00203 55.3442226,1021.01007 55.6840162,1021.09815 C57.0598693,1021.45472 58.362942,1022.00397 59.6011189,1022.70376 C60.6565866,1023.30032 61.0482362,1024.39291 60.6141313,1025.52098 C60.0653973,1026.9471 60.9346684,1028.39778 62.455021,1028.54483 C62.7741934,1028.57576 63.1259655,1028.51254 63.4311883,1028.40384 C64.6616322,1027.96586 65.7105801,1028.33653 66.3449826,1029.47521 C67.0033422,1030.65695 67.5143213,1031.89978 67.8882307,1033.19992 C68.2380317,1034.41637 67.7552548,1035.46424 66.601382,1035.98227 C65.2027849,1036.6102 64.8085578,1038.35756 65.8352165,1039.46593 C66.0499187,1039.69773 66.3360367,1039.88814 66.6242775,1040.02291 C67.7423666,1040.54533 68.233028,1041.58759 67.8933861,1042.77979 C67.5058303,1044.13996 66.9710459,1045.43843 66.2647726,1046.66383 C65.8396137,1047.40183 65.1850447,1047.76173 64.1923503,1047.79372 Z M65.8068625,1033.91563 C65.4823831,1032.72465 65.0134043,1031.59718 64.4187276,1030.5199 C64.3438245,1030.38422 64.2608851,1030.4491 64.1718808,1030.48109 C63.3453681,1030.77868 62.5029348,1030.84478 61.6459454,1030.64088 C59.065273,1030.02659 57.6219464,1027.36052 58.5232106,1024.86409 C58.5867418,1024.68793 58.5541422,1024.61016 58.3917509,1024.53678 C57.7368788,1024.24101 57.0933786,1023.91885 56.4312285,1023.64112 C55.9959106,1023.45844 55.535726,1023.33503 55.0979822,1023.18904 C54.2532745,1024.93019 52.9271546,1025.92379 51.0060549,1025.92439 C49.0769189,1025.925 47.7460987,1024.9261 46.9164019,1023.20132 C45.6897486,1023.53773 44.5287494,1024.01921 43.4277939,1024.64715 C44.0561315,1026.45515 43.82657,1028.10367 42.4584497,1029.46581 C41.093362,1030.82477 39.4460986,1031.06279 37.6458447,1030.42591 C37.0176587,1031.53851 36.5321526,1032.69721 36.202518,1033.91457 C37.9169517,1034.74232 38.9119207,1036.05761 38.9235959,1037.96977 C38.9354227,1039.91118 37.938331,1041.24876 36.2016082,1042.08864 C36.5380661,1043.31495 37.0214493,1044.48167 37.6491804,1045.57821 C39.3954556,1044.96498 40.9967764,1045.16282 42.3467015,1046.42779 C43.8061005,1047.79539 44.0731136,1049.48272 43.4293102,1051.35667 C44.5355725,1051.98324 45.6979364,1052.47367 46.9185247,1052.7984 C47.759745,1051.06771 49.0863197,1050.07775 51.008026,1050.07912 C52.9392847,1050.08048 54.2660111,1051.08454 55.0941915,1052.80128 C56.3205416,1052.46336 57.4821474,1051.98339 58.5814349,1051.35454 C57.946729,1049.54608 58.1866012,1047.90575 59.5400136,1046.54679 C60.901614,1045.1795 62.5500905,1044.94709 64.3617163,1045.57639 C64.9909637,1044.47258 65.4751051,1043.30767 65.8056495,1042.08788 C64.0596776,1041.24027 63.0671346,1039.8986 63.0839651,1037.95794 C63.1003407,1036.0567 64.0906092,1034.74504 65.8068625,1033.91563 Z M51.0060549,1030.31069 C51.9735796,1030.32342 52.9038042,1030.51096 53.8018842,1030.86176 C54.4030808,1031.09659 54.6873793,1031.70512 54.4720707,1032.28258 C54.2540326,1032.8673 53.6297889,1033.14458 53.0155525,1032.90505 C50.1091878,1031.77213 46.9910018,1033.23964 45.9026313,1035.98742 C44.5936452,1039.29219 46.7661407,1042.98885 50.280525,1043.44002 C53.3794546,1043.83782 56.1768003,1041.60867 56.4665573,1038.50189 C56.5473739,1037.63594 56.410759,1036.79758 56.0991678,1035.98363 C55.872942,1035.39269 56.1211535,1034.79553 56.6677649,1034.55691 C57.2413655,1034.30631 57.8854722,1034.56979 58.1280736,1035.17014 C58.614641,1036.37385 58.8070542,1037.627 58.6185833,1038.91197 C58.1570341,1042.06089 56.4215244,1044.22956 53.4220615,1045.27213 C48.9375747,1046.83074 44.103742,1043.83418 43.4138443,1039.13756 C42.7950592,1034.92484 45.7024852,1031.00518 49.8969116,1030.40514 C50.2636946,1030.35253 50.6362394,1030.34116 51.0060549,1030.31069 Z" id="Shape"></path>
                </g>
            </g>
        </g>
    </g>
</svg>