<?xml version="1.0" encoding="UTF-8"?>
<svg width="29px" height="26px" viewBox="0 0 29 26" version="1.1" xmlns="http://www.w3.org/2000/svg" xmlns:xlink="http://www.w3.org/1999/xlink">
    <!-- Generator: Sketch 60.1 (88133) - https://sketch.com -->
    <title>Group</title>
    <desc>Created with Sketch.</desc>
    <g id="Page-1" stroke="none" stroke-width="1" fill="none" fill-rule="evenodd">
        <g id="4" transform="translate(-1667.000000, -169.000000)" fill="#FFFFFF" fill-rule="nonzero">
            <g id="Group" transform="translate(1667.000000, 169.000000)">
                <polygon id="+-copy" points="24.9146335 3.87286053 28.7999992 3.87286053 28.7999992 5.10513434 24.9146335 5.10513434 24.9146335 8.99999976 23.6853652 8.99999976 23.6853652 5.10513434 19.7999995 5.10513434 19.7999995 3.87286053 23.6853652 3.87286053 23.6853652 0 24.9146335 0"></polygon>
                <g id="747376" transform="translate(0.000000, 2.700000)">
                    <path d="M19.6658995,14.8940996 C18.4111645,13.6394096 16.9177046,12.7105647 15.2882546,12.1482897 C17.0334445,10.9462947 18.1799995,8.93465976 18.1799995,6.65999982 C18.1799995,2.98768492 15.1923146,0 11.5199997,0 C7.84768479,0 4.85999987,2.98768492 4.85999987,6.65999982 C4.85999987,8.93465976 6.00655484,10.9462947 7.75178979,12.1482897 C6.12233984,12.7105647 4.62887988,13.6394096 3.37414491,14.8940996 C1.19830497,17.0699845 0,19.9628995 0,23.0399994 L1.79999995,23.0399994 C1.79999995,17.6803645 6.16036484,13.3199996 11.5199997,13.3199996 C16.8796346,13.3199996 21.2399994,17.6803645 21.2399994,23.0399994 L23.0399994,23.0399994 C23.0399994,19.9628995 21.8416944,17.0699845 19.6658995,14.8940996 Z M11.5199997,11.5199997 C8.84020477,11.5199997 6.65999982,9.33983975 6.65999982,6.65999982 C6.65999982,3.98015989 8.84020477,1.79999995 11.5199997,1.79999995 C14.1997946,1.79999995 16.3799996,3.98015989 16.3799996,6.65999982 C16.3799996,9.33983975 14.1997946,11.5199997 11.5199997,11.5199997 Z" id="Shape"></path>
                </g>
            </g>
        </g>
    </g>
</svg>