<?xml version="1.0" encoding="UTF-8"?>
<svg width="17px" height="20px" viewBox="0 0 17 20" version="1.1" xmlns="http://www.w3.org/2000/svg" xmlns:xlink="http://www.w3.org/1999/xlink">
    <!-- Generator: Sketch 61.1 (89650) - https://sketch.com -->
    <title>484278</title>
    <desc>Created with Sketch.</desc>
    <g id="CRM" stroke="none" stroke-width="1" fill="none" fill-rule="evenodd">
        <g id="detail" transform="translate(-1700.000000, -776.000000)" fill="#FFFFFF" fill-rule="nonzero">
            <g id="484278" transform="translate(1700.000000, 776.000000)">
                <path d="M8.85133989,0.203755997 C8.57963989,-0.0679439991 8.1405119,-0.0679439991 7.8688119,0.203755997 L3.69967995,4.37292595 L4.68220794,5.35545393 L7.6652459,2.37241597 L7.6652459,13.8973218 L9.05494389,13.8973218 L9.05494389,2.37241597 L12.0379818,5.35545393 L13.0205098,4.37292595 L8.85133989,0.203755997 Z" id="Path"></path>
                <path d="M15.3086418,12.5075858 L15.3086418,18.0664538 L1.41150998,18.0664538 L1.41150998,12.5075858 L0.0218119997,12.5075858 L0.0218119997,18.7612838 C0.0218119997,19.1448558 0.333107996,19.4561518 0.716679991,19.4561518 L16.0035478,19.4561518 C16.3871198,19.4561518 16.6984158,19.1448558 16.6984158,18.7612838 L16.6984158,12.5075858 L15.3086418,12.5075858 Z" id="Path"></path>
            </g>
        </g>
    </g>
</svg>